<svg width="51" height="50" viewBox="0 0 51 50" fill="none" xmlns="http://www.w3.org/2000/svg">
<path d="M4.01221 6.96222H46.9878V12.9681H4.01221V6.96222Z" fill="#E6F7FE"/>
<path d="M4.01221 6.96222H10.5392V12.9681H4.01221V6.96222Z" fill="#D5F1FE"/>
<path d="M46.9878 27.6814H4.01221V36.6051C7.90739 44.5385 16.0655 50 25.5 50C34.9345 50 43.0926 44.5385 46.9878 36.6051V27.6814Z" fill="#E6F7FE"/>
<path d="M4.01221 27.6814V36.6051C5.56975 39.7774 7.80936 42.5538 10.5392 44.7445V27.6814H4.01221Z" fill="#D5F1FE"/>
<path d="M4.01221 4.59253H46.9878V7.15753H4.01221V4.59253Z" fill="#D5F1FE"/>
<path d="M15.4338 7.15753H4.01221V4.59253H13.0172C14.3519 4.59253 15.4338 5.74075 15.4338 7.15753Z" fill="#11DFEF"/>
<path d="M4.01221 4.59253H10.5392V7.15753H4.01221V4.59253Z" fill="#0AC6E5"/>
<path d="M46.8566 0C46.0273 0 5.3504 0 4.14343 0C4.07095 0 4.01221 0.0587463 4.01221 0.131226V4.74129H46.9878V0.131226C46.9878 0.0587463 46.9291 0 46.8566 0Z" fill="#615DF9"/>
<path d="M11.2453 0C7.23029 0 4.44594 0 4.14343 0C4.07095 0 4.01221 0.0587463 4.01221 0.131226V4.74129H10.5392V1.07422C10.5392 0.595093 10.831 0.181198 11.2453 0Z" fill="#3342AE"/>
<path d="M7.56055 3.30153C7.02267 3.30153 6.58398 2.86323 6.58398 2.32497C6.58398 1.8592 6.91129 1.4598 7.37019 1.36672C7.96758 1.24656 8.53711 1.70585 8.53711 2.32497C8.53711 2.86742 8.09346 3.30153 7.56055 3.30153Z" fill="#F948B4"/>
<path d="M10.5391 3.30146C10.0088 3.30146 9.5625 2.86964 9.5625 2.3249C9.5625 1.7073 10.1305 1.2461 10.7294 1.36665C11.2024 1.46278 11.5156 1.87591 11.5156 2.3249C11.5156 2.86277 11.0773 3.30146 10.5391 3.30146Z" fill="#FECD0A"/>
<path d="M13.5176 3.30152C12.9873 3.30152 12.541 2.8697 12.541 2.32496C12.541 1.70431 13.1117 1.24654 13.7079 1.36671C14.181 1.46284 14.4941 1.87635 14.4941 2.32496C14.4941 2.86283 14.0558 3.30152 13.5176 3.30152Z" fill="#39DF74"/>
<path d="M44.1663 3.10291H39.0229C38.6182 3.10291 38.2905 2.77484 38.2905 2.37048C38.2905 1.96613 38.6182 1.63806 39.0229 1.63806H44.1663C44.5707 1.63806 44.8987 1.96613 44.8987 2.37048C44.8987 2.77484 44.5707 3.10291 44.1663 3.10291Z" fill="#AEAEFF"/>
<path d="M35.343 3.10291H17.3892C16.9848 3.10291 16.6567 2.77484 16.6567 2.37048C16.6567 1.96613 16.9848 1.63806 17.3892 1.63806H35.343C35.7478 1.63806 36.0755 1.96613 36.0755 2.37048C36.0755 2.77484 35.7478 3.10291 35.343 3.10291Z" fill="#AEAEFF"/>
<path d="M30.7776 2.37048C30.7776 1.96613 31.1057 1.63806 31.51 1.63806H17.3892C16.9848 1.63806 16.6567 1.96613 16.6567 2.37048C16.6567 2.77522 16.9848 3.10291 17.3892 3.10291H31.51C31.1057 3.10291 30.7776 2.77522 30.7776 2.37048Z" fill="#8181FC"/>
<path d="M11.6377 10.3977H8.65918C8.25482 10.3977 7.92676 10.0696 7.92676 9.66528C7.92676 9.26054 8.25482 8.93286 8.65918 8.93286H11.6377C12.0421 8.93286 12.3701 9.26054 12.3701 9.66528C12.3701 10.0696 12.0421 10.3977 11.6377 10.3977Z" fill="#615DF9"/>
<path d="M42.4731 10.3977H40.9106C40.5059 10.3977 40.1782 10.0696 40.1782 9.66528C40.1782 9.26054 40.5059 8.93286 40.9106 8.93286H42.4731C42.8775 8.93286 43.2056 9.26054 43.2056 9.66528C43.2056 10.0696 42.8775 10.3977 42.4731 10.3977Z" fill="#D5F1FE"/>
<path d="M38.0386 10.3977H36.4761C36.0717 10.3977 35.7437 10.0696 35.7437 9.66528C35.7437 9.26054 36.0717 8.93286 36.4761 8.93286H38.0386C38.4429 8.93286 38.771 9.26054 38.771 9.66528C38.771 10.0696 38.4429 10.3977 38.0386 10.3977Z" fill="#D5F1FE"/>
<path d="M33.604 10.3977H32.0415C31.6371 10.3977 31.3091 10.0696 31.3091 9.66528C31.3091 9.26054 31.6371 8.93286 32.0415 8.93286H33.604C34.0087 8.93286 34.3364 9.26054 34.3364 9.66528C34.3364 10.0696 34.0087 10.3977 33.604 10.3977Z" fill="#D5F1FE"/>
<path d="M29.1699 10.3977H27.6074C27.2031 10.3977 26.875 10.0696 26.875 9.66528C26.875 9.26054 27.2031 8.93286 27.6074 8.93286H29.1699C29.5743 8.93286 29.9023 9.26054 29.9023 9.66528C29.9023 10.0696 29.5743 10.3977 29.1699 10.3977Z" fill="#D5F1FE"/>
<path d="M4.01221 12.6599H46.9878V27.9896H4.01221V12.6599Z" fill="#615DF9"/>
<path d="M4.01221 12.6599H10.5392V27.9896H4.01221V12.6599Z" fill="#3342AE"/>
<path d="M25.6154 34.4746H21.4814C21.0771 34.4746 20.749 34.1465 20.749 33.7422C20.749 33.3374 21.0771 33.0098 21.4814 33.0098H25.6154C26.0198 33.0098 26.3479 33.3374 26.3479 33.7422C26.3479 34.1465 26.0198 34.4746 25.6154 34.4746Z" fill="#11DFEF"/>
<path d="M29.5182 37.2833H21.4814C21.0771 37.2833 20.749 36.9556 20.749 36.5509C20.749 36.1462 21.0771 35.8185 21.4814 35.8185H29.5182C29.9226 35.8185 30.2507 36.1462 30.2507 36.5509C30.2507 36.9556 29.9226 37.2833 29.5182 37.2833Z" fill="#11DFEF"/>
<path d="M37.4598 34.4746H33.3262C32.9214 34.4746 32.5938 34.1465 32.5938 33.7422C32.5938 33.3374 32.9214 33.0098 33.3262 33.0098H37.4598C37.8645 33.0098 38.1922 33.3374 38.1922 33.7422C38.1922 34.1465 37.8645 34.4746 37.4598 34.4746Z" fill="#11DFEF"/>
<path d="M41.3626 37.2833H33.3262C32.9214 37.2833 32.5938 36.9556 32.5938 36.5509C32.5938 36.1462 32.9214 35.8185 33.3262 35.8185H41.3626C41.7673 35.8185 42.095 36.1462 42.095 36.5509C42.095 36.9556 41.7673 37.2833 41.3626 37.2833Z" fill="#11DFEF"/>
<path d="M13.7708 34.4746H9.63721C9.23247 34.4746 8.90479 34.1465 8.90479 33.7422C8.90479 33.3374 9.23247 33.0098 9.63721 33.0098H13.7708C14.1756 33.0098 14.5032 33.3374 14.5032 33.7422C14.5032 34.1465 14.1756 34.4746 13.7708 34.4746Z" fill="#11DFEF"/>
<path d="M17.6736 37.2833H9.63721C9.23247 37.2833 8.90479 36.9556 8.90479 36.5509C8.90479 36.1462 9.23247 35.8185 9.63721 35.8185H17.6736C18.0784 35.8185 18.4061 36.1462 18.4061 36.5509C18.4061 36.9556 18.0784 37.2833 17.6736 37.2833Z" fill="#11DFEF"/>
<path d="M22.8329 16.2246C28.2628 25.1896 34.9942 23.6976 42.5187 27.9895H46.9876V12.6594H20.2012C21.1281 13.6913 22.0135 14.8719 22.8329 16.2246Z" fill="#8181FC"/>
<path d="M46.9877 23.1281V12.6599H27.4302C30.498 24.2142 40.1926 17.0571 46.9877 23.1281Z" fill="#AEAEFF"/>
<path d="M16.5018 30.5287H10.8091C10.1644 30.5287 9.63721 30.0015 9.63721 29.3568V26.5248C9.63721 25.8805 10.1644 25.3529 10.8091 25.3529H16.5018C17.1464 25.3529 17.6736 25.8805 17.6736 26.5248V29.3568C17.6736 30.0015 17.1464 30.5287 16.5018 30.5287Z" fill="#AEAEFF"/>
<path d="M28.3464 30.5287H22.6533C22.009 30.5287 21.4814 30.0015 21.4814 29.3568V26.5248C21.4814 25.8805 22.009 25.3529 22.6533 25.3529H28.3464C28.9907 25.3529 29.5182 25.8805 29.5182 26.5248V29.3568C29.5182 30.0015 28.9907 30.5287 28.3464 30.5287Z" fill="#AEAEFF"/>
<path d="M40.1907 30.5287H34.498C33.8534 30.5287 33.3262 30.0015 33.3262 29.3568V26.5248C33.3262 25.8805 33.8534 25.3529 34.498 25.3529H40.1907C40.8354 25.3529 41.3626 25.8805 41.3626 26.5248V29.3568C41.3626 30.0015 40.8354 30.5287 40.1907 30.5287Z" fill="#AEAEFF"/>
<path d="M13.6556 29.3568V26.5248C13.6556 25.8805 14.1828 25.3529 14.8275 25.3529H10.8091C10.1644 25.3529 9.63721 25.8805 9.63721 26.5248V29.3568C9.63721 30.0015 10.1644 30.5287 10.8091 30.5287H14.8275C14.1828 30.5287 13.6556 30.0015 13.6556 29.3568Z" fill="#8181FC"/>
<path d="M25.4998 29.3568V26.5248C25.4998 25.8805 26.027 25.3529 26.6717 25.3529H22.6533C22.009 25.3529 21.4814 25.8805 21.4814 26.5248V29.3568C21.4814 30.0015 22.009 30.5287 22.6533 30.5287H26.6717C26.027 30.5287 25.4998 30.0015 25.4998 29.3568Z" fill="#8181FC"/>
<path d="M37.3442 29.3568V26.5248C37.3442 25.8805 37.8718 25.3529 38.5161 25.3529H34.498C33.8534 25.3529 33.3262 25.8805 33.3262 26.5248V29.3568C33.3262 30.0015 33.8534 30.5287 34.498 30.5287H38.5161C37.8718 30.5287 37.3442 30.0015 37.3442 29.3568Z" fill="#8181FC"/>
<path d="M29.5182 40.0925H21.4814C21.0771 40.0925 20.749 39.7645 20.749 39.3601C20.749 38.9554 21.0771 38.6277 21.4814 38.6277H29.5182C29.9226 38.6277 30.2507 38.9554 30.2507 39.3601C30.2507 39.7645 29.9226 40.0925 29.5182 40.0925Z" fill="#11DFEF"/>
<path d="M41.3626 40.0925H33.3262C32.9214 40.0925 32.5938 39.7645 32.5938 39.3601C32.5938 38.9554 32.9214 38.6277 33.3262 38.6277H41.3626C41.7673 38.6277 42.095 38.9554 42.095 39.3601C42.095 39.7645 41.7673 40.0925 41.3626 40.0925Z" fill="#11DFEF"/>
<path d="M17.6736 40.0925H9.63721C9.23247 40.0925 8.90479 39.7645 8.90479 39.3601C8.90479 38.9554 9.23247 38.6277 9.63721 38.6277H17.6736C18.0784 38.6277 18.4061 38.9554 18.4061 39.3601C18.4061 39.7645 18.0784 40.0925 17.6736 40.0925Z" fill="#11DFEF"/>
<path d="M17.6737 42.9016H16.8135C16.4091 42.9016 16.0811 42.5735 16.0811 42.1692C16.0811 41.7645 16.4091 41.4368 16.8135 41.4368H17.6737C18.0784 41.4368 18.4061 41.7645 18.4061 42.1692C18.4061 42.5735 18.0784 42.9016 17.6737 42.9016Z" fill="#D5F1FE"/>
<path d="M13.7708 42.9016H9.63721C9.23247 42.9016 8.90479 42.5735 8.90479 42.1692C8.90479 41.7645 9.23247 41.4368 9.63721 41.4368H13.7712C14.1756 41.4368 14.5036 41.7645 14.5036 42.1692C14.5036 42.5735 14.1756 42.9016 13.7708 42.9016Z" fill="#11DFEF"/>
<path d="M29.5184 42.9016H28.6582C28.2535 42.9016 27.9258 42.5735 27.9258 42.1692C27.9258 41.7645 28.2535 41.4368 28.6582 41.4368H29.5184C29.9228 41.4368 30.2508 41.7645 30.2508 42.1692C30.2508 42.5735 29.9228 42.9016 29.5184 42.9016Z" fill="#D5F1FE"/>
<path d="M25.6154 42.9016H21.4814C21.0771 42.9016 20.749 42.5735 20.749 42.1692C20.749 41.7645 21.0771 41.4368 21.4814 41.4368H25.6154C26.0198 41.4368 26.3479 41.7645 26.3479 42.1692C26.3479 42.5735 26.0198 42.9016 25.6154 42.9016Z" fill="#11DFEF"/>
<path d="M41.3627 42.9016H40.5024C40.0981 42.9016 39.77 42.5735 39.77 42.1692C39.77 41.7645 40.0981 41.4368 40.5024 41.4368H41.3627C41.7674 41.4368 42.0951 41.7645 42.0951 42.1692C42.0951 42.5735 41.7674 42.9016 41.3627 42.9016Z" fill="#D5F1FE"/>
<path d="M37.4602 42.9016H33.3262C32.9214 42.9016 32.5938 42.5735 32.5938 42.1692C32.5938 41.7645 32.9214 41.4368 33.3262 41.4368H37.4602C37.8645 41.4368 38.1926 41.7645 38.1926 42.1692C38.1926 42.5735 37.8645 42.9016 37.4602 42.9016Z" fill="#11DFEF"/>
</svg>
