<svg width="50" height="50" viewBox="0 0 50 50" fill="none" xmlns="http://www.w3.org/2000/svg">
<g clip-path="url(#clip0_97_1391)">
<path d="M38.8883 6.30941L21.1802 0.0594721C20.9564 -0.019824 20.7102 -0.019824 20.4864 0.0594721L2.77831 6.30941C2.3623 6.45687 2.0835 6.85062 2.0835 7.29212V19.792C2.0835 35.9682 4.4822 41.8804 20.3644 49.8882C20.5118 49.9624 20.6726 50.0001 20.8333 50.0001C20.9941 50.0001 21.1548 49.9625 21.3023 49.8882C37.1844 41.8804 39.5831 35.9682 39.5831 19.792V7.29212C39.5831 6.85062 39.3044 6.45697 38.8883 6.30941Z" fill="white"/>
<path d="M20.8335 2.14691L4.16699 8.02967V19.7921C4.16699 21.6771 4.19805 23.4016 4.27588 24.9998H20.8335V2.14691Z" fill="#2559DA"/>
<path d="M37.3911 24.9998C37.469 23.4016 37.5 21.6771 37.5 19.7921V8.02967L20.8335 2.14691V24.9998H37.3911Z" fill="#FACC56"/>
<path d="M20.8335 24.9998V47.7905C33.7371 41.2119 36.8292 36.5372 37.3911 24.9998H20.8335Z" fill="#2559DA"/>
<path d="M4.27588 24.9998C4.83779 36.5372 7.92994 41.2119 20.8335 47.7905V24.9998H4.27588Z" fill="#FACC56"/>
<path opacity="0.1" d="M20.8335 43.7497C6.14246 36.2597 4.16699 33.3285 4.16699 17.8349V19.7921C4.16699 35.2857 6.14246 40.3007 20.8335 47.7907C35.5246 40.3007 37.5001 35.2857 37.5001 19.7921V17.8349C37.5001 33.3285 35.5245 36.2597 20.8335 43.7497Z" fill="#1B1D1A"/>
<path d="M36.4582 49.9998C42.7864 49.9998 47.9164 44.8697 47.9164 38.5416C47.9164 32.2134 42.7864 27.0834 36.4582 27.0834C30.13 27.0834 25 32.2134 25 38.5416C25 44.8697 30.13 49.9998 36.4582 49.9998Z" fill="white"/>
<path d="M36.4584 47.9164C41.636 47.9164 45.8333 43.7192 45.8333 38.5415C45.8333 33.3639 41.636 29.1666 36.4584 29.1666C31.2808 29.1666 27.0835 33.3639 27.0835 38.5415C27.0835 43.7192 31.2808 47.9164 36.4584 47.9164Z" fill="#2559DA"/>
<path d="M39.8884 39.8881L37.5 42.2765V32.2913C37.5 31.7155 37.034 31.2496 36.4583 31.2496C35.8825 31.2496 35.4166 31.7155 35.4166 32.2913V42.2765L33.0281 39.8881C32.6212 39.4811 31.962 39.4811 31.5552 39.8881C31.1483 40.295 31.1483 40.9542 31.5552 41.361L35.7219 45.5277C35.9253 45.7311 36.1919 45.8328 36.4584 45.8328C36.7249 45.8328 36.9914 45.7311 37.1949 45.5277L41.3615 41.361C41.7685 40.9541 41.7685 40.2949 41.3615 39.8881C40.9546 39.4812 40.2953 39.4812 39.8884 39.8881Z" fill="white"/>
<path d="M39.2909 27.452C39.5014 25.1684 39.5831 22.6471 39.5831 19.792V7.29212C39.5831 6.85062 39.3044 6.45697 38.8883 6.30941L21.1802 0.0594721C20.9564 -0.019824 20.7102 -0.019824 20.4864 0.0594721L2.77831 6.30941C2.3623 6.45687 2.0835 6.85062 2.0835 7.29212V19.792C2.0835 35.9682 4.4822 41.8804 20.3644 49.8882C20.5118 49.9624 20.6726 50.0001 20.8333 50.0001C20.9941 50.0001 21.1548 49.9625 21.3023 49.8882C23.8483 48.6044 26.0141 47.3749 27.9128 46.1481C30.0129 48.5047 33.0606 49.9996 36.4582 49.9996C42.7763 49.9996 47.9164 44.8595 47.9164 38.5414C47.9164 33.2024 44.2408 28.7179 39.2909 27.452Z" fill="url(#paint0_linear_97_1391)"/>
</g>
<defs>
<linearGradient id="paint0_linear_97_1391" x1="-1.05399" y1="13.792" x2="49.6227" y2="37.423" gradientUnits="userSpaceOnUse">
<stop stop-color="white" stop-opacity="0.2"/>
<stop offset="1" stop-color="white" stop-opacity="0"/>
</linearGradient>
<clipPath id="clip0_97_1391">
<rect width="50" height="50" fill="white"/>
</clipPath>
</defs>
</svg>
