<svg width="50" height="50" viewBox="0 0 50 50" fill="none" xmlns="http://www.w3.org/2000/svg">
<g clip-path="url(#clip0_97_1437)">
<path d="M41.084 39.5769H2.4167C1.08203 39.5769 0 38.495 0 37.1602V4.93752C0 3.60285 1.08203 2.52081 2.4167 2.52081H41.084C42.4186 2.52081 43.5007 3.60285 43.5007 4.93752V37.1602C43.5007 38.495 42.4187 39.5769 41.084 39.5769Z" fill="#EDEBED"/>
<path d="M1.61114 37.16V2.65802C0.674611 2.99093 0 3.88664 0 4.93732V37.16C0 38.4947 1.08203 39.5767 2.4167 39.5767H41.084C42.1347 39.5767 43.0197 38.9021 43.3527 37.9656H2.4167C1.97178 37.9656 1.61114 37.605 1.61114 37.16Z" fill="#DBD9DC"/>
<path d="M41.0842 37.9657H2.4169C1.97197 37.9657 1.61133 37.605 1.61133 37.1601V11.3819C1.61133 10.937 1.97197 10.5764 2.4169 10.5764H41.0842C41.5291 10.5764 41.8897 10.937 41.8897 11.3819V37.1601C41.8897 37.605 41.5291 37.9657 41.0842 37.9657Z" fill="#E8FDEA"/>
<path d="M40.2787 7.35418H11.2782C10.8329 7.35418 10.4727 6.99344 10.4727 6.54861C10.4727 6.10378 10.8329 5.74304 11.2782 5.74304H40.2787C40.724 5.74304 41.0842 6.10378 41.0842 6.54861C41.0842 6.99344 40.724 7.35418 40.2787 7.35418Z" fill="#E8FDEA"/>
<path d="M37.8616 19.4378H24.9726C24.5276 19.4378 24.167 19.0772 24.167 18.6322V16.2155C24.167 15.7706 24.5276 15.41 24.9726 15.41H37.8616C38.3066 15.41 38.6672 15.7706 38.6672 16.2155V18.6322C38.6672 19.0772 38.3066 19.4378 37.8616 19.4378Z" fill="#8CB4EB"/>
<path d="M34.6394 23.4655H24.9726C24.5272 23.4655 24.167 23.1048 24.167 22.6599C24.167 22.2151 24.5272 21.8544 24.9726 21.8544H34.6394C35.0847 21.8544 35.4449 22.2151 35.4449 22.6599C35.4449 23.1048 35.0847 23.4655 34.6394 23.4655Z" fill="#867E88"/>
<path d="M30.6115 26.6878H24.9726C24.5272 26.6878 24.167 26.3271 24.167 25.8822C24.167 25.4374 24.5272 25.0767 24.9726 25.0767H30.6115C31.0569 25.0767 31.4171 25.4374 31.4171 25.8822C31.4171 26.3271 31.0569 26.6878 30.6115 26.6878Z" fill="#9C969E"/>
<path d="M3.22207 7.35442C3.66697 7.35442 4.02764 6.99375 4.02764 6.54885C4.02764 6.10395 3.66697 5.74329 3.22207 5.74329C2.77717 5.74329 2.4165 6.10395 2.4165 6.54885C2.4165 6.99375 2.77717 7.35442 3.22207 7.35442Z" fill="#FF8087"/>
<path d="M5.63906 7.35442C6.08396 7.35442 6.44463 6.99375 6.44463 6.54885C6.44463 6.10395 6.08396 5.74329 5.63906 5.74329C5.19416 5.74329 4.8335 6.10395 4.8335 6.54885C4.8335 6.99375 5.19416 7.35442 5.63906 7.35442Z" fill="#FFD164"/>
<path d="M8.05557 7.35442C8.50047 7.35442 8.86114 6.99375 8.86114 6.54885C8.86114 6.10395 8.50047 5.74329 8.05557 5.74329C7.61066 5.74329 7.25 6.10395 7.25 6.54885C7.25 6.99375 7.61066 7.35442 8.05557 7.35442Z" fill="#B4E6A0"/>
<path d="M22.6799 31.707L18.7141 30.0546C18.1137 29.8044 17.7226 29.2177 17.7226 28.5673V25.8821H11.278V28.5673C11.278 29.2177 10.8869 29.8045 10.2865 30.0546L6.32071 31.707C5.42012 32.0822 4.8335 32.9622 4.8335 33.9378V37.9656H24.1671V33.9378C24.1671 32.9622 23.5805 32.0822 22.6799 31.707Z" fill="#C9C6CA"/>
<path d="M11.2777 25.8821V28.5673C11.2777 28.7161 11.2575 28.8622 11.2188 29.0009C12.1825 29.5756 13.2986 29.91 14.5 29.91C15.7014 29.91 16.8177 29.5758 17.7815 29.0011C17.7427 28.8624 17.7223 28.7162 17.7223 28.5674V25.8822L11.2777 25.8821Z" fill="#B7B2B8"/>
<path d="M14.5004 16.2156C11.831 16.2156 9.66699 18.0189 9.66699 20.2434V23.4657C9.66699 26.135 11.831 28.2991 14.5004 28.2991C17.1698 28.2991 19.3338 26.135 19.3338 23.4657V20.2434C19.3338 18.0189 17.1698 16.2156 14.5004 16.2156Z" fill="#DBD9DC"/>
<path d="M12.0837 23.4654V19.4376C12.0837 18.1316 12.8329 16.9743 13.989 16.2383C11.5601 16.4513 9.66699 18.1627 9.66699 20.2431V23.4654C9.66699 26.1348 11.831 28.2988 14.5004 28.2988C14.9185 28.2988 15.3272 28.2455 15.7141 28.1457C13.6306 27.6083 12.0837 25.7168 12.0837 23.4654Z" fill="#C9C6CA"/>
<path d="M24.167 36.3549H9.6669C7.88731 36.3549 6.44463 34.9122 6.44463 33.1326V31.6556L6.321 31.7071C5.42022 32.0823 4.8335 32.9623 4.8335 33.9381V37.9659H24.1671C24.1671 37.9659 24.1671 37.2446 24.1671 36.3549H24.167Z" fill="#B7B2B8"/>
<path d="M38.6674 17.8267H27.3895C26.4996 17.8267 25.7783 17.1054 25.7783 16.2155V15.41H37.8618C38.3068 15.41 38.6674 15.7706 38.6674 16.2155V17.8267Z" fill="#A5CDFF"/>
<path d="M38.6353 26.0662L28.8699 29.4628C28.5178 29.5853 28.2978 29.9313 28.3327 30.3025C28.5622 32.7446 29.9879 41.65 38.7187 47.3483C38.986 47.5227 39.3431 47.5227 39.6104 47.3483C48.3412 41.65 49.7668 32.7446 49.9963 30.3025C50.0312 29.9313 49.8112 29.5853 49.4591 29.4628L39.6938 26.0662C39.3511 25.947 38.9781 25.947 38.6353 26.0662Z" fill="#FFE17D"/>
<path d="M38.3368 39.7502C38.1228 39.7502 37.9182 39.6653 37.7672 39.5142L34.4577 36.2042C34.143 35.8896 34.143 35.3798 34.4577 35.0651C34.7723 34.7504 35.2821 34.7504 35.5968 35.0651L38.3369 37.8055L42.9689 33.1739C43.2836 32.8592 43.7933 32.8592 44.1081 33.1739C44.4228 33.4885 44.4227 33.9983 44.1081 34.313L38.9065 39.5142C38.7553 39.6652 38.5508 39.7502 38.3368 39.7502Z" fill="#E8FDEA"/>
<path d="M31.3675 28.5941L28.87 29.4628C28.5179 29.5852 28.2979 29.9312 28.3327 30.3023C28.5622 32.7444 29.9879 41.6497 38.7186 47.3481C38.9859 47.5226 39.3431 47.5226 39.6103 47.3481C40.1347 47.006 40.6314 46.6529 41.1043 46.2897C33.9496 40.6281 31.9274 32.4925 31.3675 28.5941Z" fill="#FFD164"/>
</g>
<defs>
<clipPath id="clip0_97_1437">
<rect width="50" height="50" fill="white"/>
</clipPath>
</defs>
</svg>
