<svg width="51" height="50" viewBox="0 0 51 50" fill="none" xmlns="http://www.w3.org/2000/svg">
<g clip-path="url(#clip0_97_1343)">
<path d="M47.4819 38.7787H3.51807C1.85127 38.7787 0.5 37.4275 0.5 35.7606V7.34839C0.5 5.68149 1.85127 4.33032 3.51807 4.33032H47.4818C49.1487 4.33032 50.4999 5.68159 50.4999 7.34839V35.7606C50.5 37.4275 49.1487 38.7787 47.4819 38.7787Z" fill="#506D90"/>
<path d="M47.4819 4.33032H44.4639C46.1308 4.33032 47.4819 5.68159 47.4819 7.34839V35.7606C47.4819 37.4275 46.1307 38.7787 44.4639 38.7787H47.4819C49.1488 38.7787 50.5 37.4274 50.5 35.7606V7.34839C50.5 5.68159 49.1487 4.33032 47.4819 4.33032Z" fill="#455F7E"/>
<path d="M3.51807 33.8493V7.75101C3.51807 7.52875 3.69824 7.34857 3.92051 7.34857H47.0795C47.3018 7.34857 47.4819 7.52875 47.4819 7.75101V33.8493C47.4819 34.0715 47.3018 34.2517 47.0795 34.2517H3.92051C3.69824 34.2517 3.51807 34.0715 3.51807 33.8493Z" fill="#ECF5FF"/>
<path d="M47.0796 7.34857H44.0615C44.2838 7.34857 44.464 7.52875 44.464 7.75101V33.8493C44.464 34.0715 44.2838 34.2517 44.0615 34.2517H47.0796C47.3019 34.2517 47.482 34.0715 47.482 33.8493V7.75101C47.482 7.52875 47.3019 7.34857 47.0796 7.34857Z" fill="#DBEAFD"/>
<path d="M30.4845 49.9999H20.5161L22.0252 38.7787H28.9754L30.4845 49.9999Z" fill="#455F7E"/>
<path d="M28.9751 38.7787H25.957L27.4661 49.9999H30.4842L28.9751 38.7787Z" fill="#405972"/>
<path d="M32.0286 45.1484L33.0912 48.9799C33.2334 49.4927 32.8477 49.9998 32.3156 49.9998H18.6842C18.1521 49.9998 17.7665 49.4927 17.9086 48.9799L18.9712 45.1484C19.0679 44.7999 19.3851 44.5587 19.7468 44.5587H31.2531C31.6147 44.5587 31.932 44.8 32.0286 45.1484Z" fill="#506D90"/>
<path d="M33.0916 48.9799L32.029 45.1484C31.9323 44.7999 31.6151 44.5587 31.2534 44.5587H28.2354C28.597 44.5587 28.9143 44.7999 29.0109 45.1484L30.0735 48.9799C30.2157 49.4927 29.8301 49.9998 29.298 49.9998H32.316C32.8481 49.9998 33.2338 49.4927 33.0916 48.9799Z" fill="#455F7E"/>
<path d="M9.50537 6.03619H41.4953V34.2516H9.50537V6.03619Z" fill="#E8FDEA"/>
<path d="M40.2876 0H37.2695C37.9362 0 38.4768 0.540527 38.4768 1.20723V34.2517H41.4948V1.20723C41.4948 0.540527 40.9544 0 40.2876 0V0Z" fill="#EFEAF4"/>
<path d="M40.288 0H10.7126C10.0459 0 9.50537 0.540527 9.50537 1.20723V6.03623H41.4953V1.20723C41.4952 0.540527 40.9548 0 40.288 0V0Z" fill="#455F7E"/>
<path d="M40.2876 0H37.2695C37.9362 0 38.4768 0.540527 38.4768 1.20723V6.03623H41.4948V1.20723C41.4948 0.540527 40.9544 0 40.2876 0V0Z" fill="#405972"/>
<path d="M12.523 3.77241C12.9397 3.77241 13.2775 3.43461 13.2775 3.01792C13.2775 2.60123 12.9397 2.26343 12.523 2.26343C12.1064 2.26343 11.7686 2.60123 11.7686 3.01792C11.7686 3.43461 12.1064 3.77241 12.523 3.77241Z" fill="#D5707E"/>
<path d="M15.5411 3.77241C15.9578 3.77241 16.2956 3.43461 16.2956 3.01792C16.2956 2.60123 15.9578 2.26343 15.5411 2.26343C15.1244 2.26343 14.7866 2.60123 14.7866 3.01792C14.7866 3.43461 15.1244 3.77241 15.5411 3.77241Z" fill="#F0D16F"/>
<path d="M18.5592 3.77241C18.9759 3.77241 19.3137 3.43461 19.3137 3.01792C19.3137 2.60123 18.9759 2.26343 18.5592 2.26343C18.1425 2.26343 17.8047 2.60123 17.8047 3.01792C17.8047 3.43461 18.1425 3.77241 18.5592 3.77241Z" fill="#A4D9A6"/>
<path d="M34.0611 34.2517V29.034C34.0611 27.3149 33.0092 25.7708 31.4094 25.1417L29.3709 24.3401C28.5649 24.0231 28.035 23.2452 28.035 22.3792V20.7132H22.9646V22.3792C22.9646 23.2452 22.4347 24.0232 21.6287 24.3401L19.5902 25.1417C17.9904 25.7709 16.9385 27.315 16.9385 29.034V34.2517" fill="#DD8793"/>
<path d="M31.4091 25.1417L29.3706 24.3401C28.5646 24.0231 28.0347 23.2452 28.0347 22.3792V20.7132H25.0166V23.8883C25.0166 24.7543 25.5466 25.5322 26.3525 25.8491L28.391 26.6508C29.9909 27.28 31.0428 28.824 31.0428 30.5432V34.2518H34.0608V29.0341C34.0608 27.315 33.0089 25.7709 31.4091 25.1417Z" fill="#D5707E"/>
<path d="M28.7793 34.2517V31.4105C28.7793 30.9938 29.1171 30.656 29.5338 30.656C29.9506 30.656 30.2883 30.9938 30.2883 31.4105V34.2517H28.7793Z" fill="#D5707E"/>
<path d="M20.7114 34.2517V31.4105C20.7114 30.9938 21.0492 30.656 21.4659 30.656C21.8826 30.656 22.2204 30.9938 22.2204 31.4105V34.2517H20.7114Z" fill="#D5707E"/>
<path d="M25.4996 25.9011C26.9456 25.9011 28.2371 25.2402 29.089 24.2041C28.4436 23.832 26.5257 23.1398 26.5257 22.3792V20.7132H22.9645V22.3792C22.9645 23.1398 22.5556 23.832 21.9102 24.2041C22.7621 25.2402 24.0536 25.9011 25.4996 25.9011Z" fill="#F2CCBC"/>
<path d="M26.3096 25.8303C27.4231 25.6344 28.3999 25.0422 29.089 24.2041C28.4918 23.8569 28.0321 23.1931 28.0347 22.3792V20.7132H25.0166V23.8883C25.0166 24.7385 25.5282 25.5028 26.3096 25.8303Z" fill="#ECAD9A"/>
<path d="M25.6122 21.382C25.4527 21.382 25.1829 21.8929 25.0275 21.8771C22.6981 21.6406 20.8804 19.6733 20.8804 17.2814V15.2774L22.3895 11.6474C22.3895 10.3127 23.4715 10.7396 24.8064 10.7396H27.7025C29.0373 10.7396 28.6104 10.3127 28.6104 11.6474L30.1194 15.2774V17.2814C30.1194 18.8964 29.2906 20.3179 28.0353 21.1437C27.3074 21.6224 25.6122 21.382 25.6122 21.382Z" fill="#F2CCBC"/>
<path d="M28.6105 11.6474C28.6105 10.3127 29.0374 10.7396 27.7026 10.7396L27.1014 13.7683V17.2814C27.1223 17.5256 27.2139 18.8734 26.2249 19.9883C24.9702 21.4027 23.1101 21.1645 22.9648 21.1433C23.3246 21.3761 23.9487 21.7144 24.7899 21.8461C24.7899 21.8461 25.1527 21.9008 25.5 21.9008C28.0513 21.9008 30.1195 19.8326 30.1195 17.2813V15.2773L28.6105 11.6474Z" fill="#ECAD9A"/>
<path d="M30.1194 11.6475C30.1194 10.3127 29.0373 9.23059 27.7025 9.23059H23.2973C21.9625 9.23059 20.8804 10.3126 20.8804 11.6475V15.2775C21.7321 15.4069 23.2866 15.5185 25.0372 14.8924C25.8201 14.6124 26.4553 14.2518 26.9425 13.9177C27.035 13.8543 27.1617 13.878 27.223 13.9719C27.4089 14.2573 27.7783 14.7142 28.4083 15.0184C29.1684 15.3855 29.8636 15.3157 30.1193 15.2774V11.6475H30.1194Z" fill="#CF9772"/>
<path d="M27.7026 9.23071H24.6846C26.0193 9.23071 27.1015 10.3127 27.1015 11.6476V13.8879C27.1496 13.899 27.1939 13.9272 27.2231 13.972C27.4091 14.2574 27.7785 14.7143 28.4085 15.0185C29.1686 15.3856 29.8638 15.3159 30.1195 15.2775V11.6475C30.1195 10.3127 29.0374 9.23071 27.7026 9.23071Z" fill="#C88556"/>
<path d="M35.7668 3.01825H48.1552C49.4502 3.01825 50.5 4.06805 50.5 5.36307V10.7081C50.5 12.0031 49.4502 13.0529 48.1552 13.0529H41.2001C41.055 13.0529 40.9158 13.1105 40.8132 13.2132L38.5501 15.4763C38.3531 15.6732 38.0164 15.5337 38.0164 15.2552V13.6C38.0164 13.2978 37.7715 13.0528 37.4692 13.0528H35.7667C34.4717 13.0528 33.4219 12.003 33.4219 10.708V5.36307C33.422 4.06805 34.4718 3.01825 35.7668 3.01825Z" fill="#F7E07F"/>
<path d="M48.1553 3.01825H45.1372C46.4322 3.01825 47.482 4.06805 47.482 5.36307V10.7081C47.482 12.0031 46.4322 13.0529 45.1372 13.0529H48.1553C49.4503 13.0529 50.5001 12.0031 50.5001 10.7081V5.36307C50.5001 4.06805 49.4503 3.01825 48.1553 3.01825Z" fill="#F0D16F"/>
<path d="M47.0859 7.28084H36.8355C36.4188 7.28084 36.0811 6.94304 36.0811 6.52634C36.0811 6.10964 36.4188 5.77185 36.8355 5.77185H47.0859C47.5027 5.77185 47.8404 6.10964 47.8404 6.52634C47.8404 6.94304 47.5027 7.28084 47.0859 7.28084Z" fill="#F9F6F6"/>
<path d="M47.0859 10.2991H36.8355C36.4188 10.2991 36.0811 9.96135 36.0811 9.54465C36.0811 9.12795 36.4188 8.79016 36.8355 8.79016H47.0859C47.5027 8.79016 47.8404 9.12795 47.8404 9.54465C47.8404 9.96135 47.5027 10.2991 47.0859 10.2991Z" fill="#F9F6F6"/>
</g>
<defs>
<clipPath id="clip0_97_1343">
<rect width="50" height="50" fill="white" transform="translate(0.5)"/>
</clipPath>
</defs>
</svg>
