<svg width="584" height="206" viewBox="0 0 584 206" fill="none" xmlns="http://www.w3.org/2000/svg">
<path d="M273.25 56.5126C277.184 57.7538 280.271 59.8352 282.499 62.7459C284.732 65.6567 285.846 69.2395 285.846 73.4945C285.846 79.5165 283.499 84.1455 278.809 87.3868C274.119 90.6282 267.278 92.2489 258.29 92.2489H222.665V23.5298H256.323C264.719 23.5298 271.169 25.1342 275.663 28.3376C280.157 31.5465 282.406 35.8936 282.406 41.3952C282.406 44.7342 281.602 47.7099 279.994 50.3279C278.385 52.946 276.135 55.0111 273.25 56.5126ZM238.51 35.5087V51.7047H254.356C258.29 51.7047 261.279 51.0163 263.311 49.645C265.343 48.2682 266.36 46.241 266.36 43.5579C266.36 40.8749 265.343 38.8639 263.311 37.5197C261.279 36.1809 258.29 35.5087 254.356 35.5087H238.51ZM257.111 80.2699C261.311 80.2699 264.474 79.5815 266.61 78.2102C268.74 76.8334 269.81 74.7086 269.81 71.8304C269.81 66.1391 265.577 63.288 257.116 63.288H238.516V80.2699H257.111Z" fill="white"/>
<path d="M346.865 66.0364C346.865 66.2315 346.767 67.6083 346.571 70.1613H306.517C307.24 73.4352 308.946 76.0207 311.636 77.9178C314.326 79.8149 317.673 80.7635 321.673 80.7635C324.428 80.7635 326.873 80.3515 329.003 79.5385C331.133 78.72 333.122 77.4299 334.959 75.6629L343.126 84.4981C338.143 90.1894 330.856 93.0405 321.281 93.0405C315.309 93.0405 310.027 91.8806 305.436 89.5552C300.844 87.2299 297.301 84.0102 294.807 79.8854C292.313 75.7605 291.068 71.0827 291.068 65.8467C291.068 60.6757 292.296 56.0142 294.758 51.8568C297.219 47.6994 300.594 44.4634 304.892 42.1381C309.191 39.8128 313.994 38.6528 319.309 38.6528C324.493 38.6528 329.182 39.764 333.383 41.9918C337.583 44.2195 340.876 47.4067 343.273 51.5641C345.664 55.7106 346.865 60.5402 346.865 66.0364ZM319.407 50.2307C315.929 50.2307 313.011 51.2118 310.647 53.1739C308.283 55.1361 306.843 57.8192 306.316 61.2231H332.394C331.867 57.8842 330.427 55.2174 328.063 53.2227C325.705 51.228 322.819 50.2307 319.407 50.2307Z" fill="white"/>
<path d="M373.04 93.0292C368.644 93.0292 364.346 92.4872 360.151 91.4086C355.95 90.3299 352.603 88.9694 350.114 87.3325L355.233 76.34C357.597 77.8469 360.45 79.0719 363.797 80.0204C367.144 80.969 370.427 81.446 373.638 81.446C380.132 81.446 383.381 79.8416 383.381 76.6381C383.381 75.1313 382.495 74.0526 380.724 73.3968C378.952 72.7409 376.23 72.188 372.557 71.7273C368.226 71.0714 364.65 70.318 361.83 69.467C359.01 68.616 356.564 67.1092 354.499 64.9519C352.434 62.7946 351.402 59.7158 351.402 55.7265C351.402 52.3875 352.369 49.428 354.304 46.8425C356.238 44.257 359.059 42.2461 362.765 40.8043C366.471 39.3624 370.85 38.647 375.904 38.647C379.643 38.647 383.365 39.0589 387.076 39.872C390.782 40.6904 393.853 41.8179 396.276 43.2597L391.157 54.1546C386.5 51.5365 381.414 50.2302 375.904 50.2302C372.622 50.2302 370.166 50.6855 368.525 51.607C366.884 52.523 366.063 53.6993 366.063 55.1411C366.063 56.778 366.949 57.9217 368.72 58.5776C370.492 59.2334 373.312 59.8513 377.181 60.4422C381.512 61.1631 385.055 61.9328 387.81 62.7512C390.565 63.5697 392.961 65.0603 394.994 67.2176C397.026 69.3749 398.042 72.3886 398.042 76.2479C398.042 79.5218 397.059 82.4325 395.092 84.9855C393.124 87.5384 390.255 89.5168 386.479 90.9261C382.702 92.3354 378.224 93.0292 373.04 93.0292Z" fill="white"/>
<path d="M439.765 89.6955C438.254 90.8067 436.401 91.6414 434.206 92.1997C432.01 92.758 429.695 93.0344 427.266 93.0344C420.968 93.0344 416.094 91.43 412.654 88.2266C409.209 85.0178 407.486 80.3075 407.486 74.0903V52.3981H399.319V40.6197H407.486V27.7627H422.838V40.6197H436.026V52.3981H422.838V73.8952C422.838 76.1176 423.414 77.8358 424.56 79.05C425.707 80.2587 427.332 80.8658 429.429 80.8658C431.858 80.8658 433.923 80.2099 435.629 78.9036L439.765 89.6955Z" fill="white"/>
<path d="M238.608 125.725V143.883H270.495V156.648H238.608V181.679H222.665V112.96H274.728V125.725H238.608Z" fill="white"/>
<path d="M306.414 182.465C300.838 182.465 295.834 181.305 291.405 178.98C286.976 176.654 283.515 173.435 281.021 169.31C278.526 165.185 277.282 160.507 277.282 155.271C277.282 150.035 278.526 145.357 281.021 141.232C283.515 137.107 286.976 133.888 291.405 131.562C295.834 129.237 300.838 128.077 306.414 128.077C311.989 128.077 316.978 129.237 321.374 131.562C325.77 133.888 329.215 137.107 331.709 141.232C334.203 145.357 335.448 150.035 335.448 155.271C335.448 160.507 334.203 165.185 331.709 169.31C329.215 173.435 325.77 176.654 321.374 178.98C316.978 181.299 311.989 182.465 306.414 182.465ZM306.414 169.9C310.348 169.9 313.581 168.572 316.108 165.922C318.635 163.271 319.896 159.721 319.896 155.271C319.896 150.821 318.635 147.271 316.108 144.62C313.581 141.969 310.353 140.647 306.414 140.647C302.48 140.647 299.23 141.975 296.671 144.62C294.111 147.271 292.834 150.821 292.834 155.271C292.834 159.721 294.117 163.271 296.671 165.922C299.23 168.572 302.48 169.9 306.414 169.9Z" fill="white"/>
<path d="M358.477 135.834C360.314 133.281 362.792 131.351 365.905 130.039C369.019 128.733 372.611 128.077 376.681 128.077V142.213C374.975 142.083 373.828 142.018 373.236 142.018C368.84 142.018 365.395 143.243 362.9 145.699C360.406 148.154 359.162 151.834 359.162 156.745V181.679H343.811V128.869H358.472V135.834H358.477Z" fill="white"/>
<path d="M419.985 179.126C418.474 180.237 416.621 181.072 414.426 181.63C412.231 182.189 409.916 182.465 407.487 182.465C401.189 182.465 396.314 180.861 392.875 177.657C389.429 174.448 387.707 169.738 387.707 163.521V141.829H379.539V130.05H387.707V117.193H403.058V130.05H416.246V141.829H403.058V163.326C403.058 165.554 403.634 167.266 404.78 168.481C405.927 169.689 407.552 170.296 409.649 170.296C412.078 170.296 414.143 169.641 415.85 168.334L419.985 179.126Z" fill="white"/>
<path d="M480.112 128.863V181.673H465.549V175.391C463.517 177.684 461.088 179.435 458.267 180.643C455.447 181.852 452.393 182.459 449.117 182.459C442.161 182.459 436.651 180.464 432.581 176.47C428.516 172.48 426.478 166.556 426.478 158.702V128.857H441.83V156.442C441.83 164.951 445.405 169.201 452.556 169.201C456.23 169.201 459.18 168.009 461.414 165.618C463.642 163.228 464.761 159.677 464.761 154.967V128.857H480.112V128.863Z" fill="white"/>
<path d="M497.593 128.077C504.152 128.077 509.451 130.039 513.488 133.969C517.525 137.893 519.541 143.72 519.541 151.444V181.679H504.19V153.802C504.19 149.612 503.272 146.49 501.435 144.425C499.599 142.365 496.941 141.33 493.464 141.33C489.595 141.33 486.508 142.522 484.215 144.913C481.916 147.303 480.77 150.853 480.77 155.564V181.673H465.419V128.863H480.08V135.048C482.112 132.825 484.639 131.107 487.655 129.893C490.671 128.684 493.985 128.077 497.593 128.077Z" fill="white"/>
<path d="M584 155.466C584 155.661 583.902 157.038 583.707 159.591H543.652C544.375 162.865 546.081 165.45 548.771 167.347C551.461 169.245 554.808 170.193 558.808 170.193C561.563 170.193 564.008 169.781 566.138 168.968C568.268 168.15 570.257 166.86 572.094 165.093L580.261 173.928C575.273 179.619 567.991 182.47 558.411 182.47C552.439 182.47 547.157 181.31 542.566 178.985C537.974 176.66 534.431 173.44 531.937 169.315C529.442 165.19 528.198 160.512 528.198 155.276C528.198 150.105 529.426 145.444 531.888 141.286C534.349 137.129 537.724 133.893 542.022 131.568C546.32 129.242 551.124 128.083 556.439 128.083C561.623 128.083 566.312 129.194 570.513 131.421C574.713 133.644 578.006 136.836 580.403 140.994C582.805 145.146 584 149.97 584 155.466ZM556.542 139.666C553.064 139.666 550.146 140.647 547.782 142.609C545.418 144.571 543.978 147.254 543.451 150.658H569.529C569.002 147.319 567.562 144.652 565.198 142.658C562.84 140.663 559.954 139.666 556.542 139.666Z" fill="white"/>
<path fill-rule="evenodd" clip-rule="evenodd" d="M131.601 0C166.031 0 193.984 27.8822 193.984 62.2255C193.984 77.8198 188.224 92.0753 178.709 103.003C188.224 113.925 193.984 128.186 193.984 143.78C193.984 177.988 166.249 205.789 132.009 206H131.607C131.607 206 76.8208 206 37.9404 206C27.8765 206 18.2257 202.011 11.1126 194.915C3.99945 187.82 0 178.194 0 168.155C0 131.085 0 74.9145 0 37.8448C0 27.8063 3.99945 18.1798 11.1126 11.0846C18.2257 3.98938 27.8765 0 37.9404 0H131.601ZM131.601 81.549V81.5002C142.268 81.5002 150.93 72.8602 150.93 62.2201C150.93 51.58 142.268 42.9399 131.601 42.9399C131.134 42.9399 130.672 42.9562 130.216 42.9887H77.4946V42.9399H54.1229C51.1831 42.9399 48.3682 44.1053 46.2924 46.1759C44.2167 48.2464 43.0483 51.0542 43.0483 53.9866C43.0483 90.6498 43.0483 205.995 43.0483 205.995H77.4892V163.049H102.904C113.571 163.049 122.233 154.409 122.233 143.769C122.233 133.129 113.571 124.494 102.904 124.494H77.4892V81.549H131.601Z" fill="white"/>
</svg>
