<svg width="51" height="50" viewBox="0 0 51 50" fill="none" xmlns="http://www.w3.org/2000/svg">
<path d="M29.2398 34.7047C29.1125 35.4844 28.9102 36.2375 28.6375 36.9578L31.0836 39.1742C30.7406 39.8961 30.35 40.5898 29.8992 41.2414L26.7586 40.2289C26.2633 40.8344 25.7086 41.3883 25.1031 41.8836L26.1156 45.0242C25.4641 45.475 24.7703 45.8648 24.0484 46.2086L21.832 43.7625C21.1117 44.0352 20.3594 44.2375 19.5789 44.3648L18.8813 47.5961C18.4867 47.6273 18.0906 47.6562 17.6875 47.6562C17.2844 47.6562 16.8883 47.6273 16.493 47.5961L15.7953 44.3648C15.0156 44.2375 14.2625 44.0352 13.5422 43.7625L11.3258 46.2086C10.6039 45.8656 9.91016 45.475 9.25859 45.0242L10.2711 41.8836C9.66563 41.3883 9.11172 40.8336 8.61641 40.2289L5.47578 41.2414C5.025 40.5898 4.63516 39.8961 4.29141 39.1742L6.7375 36.9578C6.46484 36.2375 6.2625 35.4852 6.13516 34.7047L2.90391 34.007C2.87266 33.6117 2.84375 33.2156 2.84375 32.8125C2.84375 32.4094 2.87266 32.0133 2.90391 31.618L6.13516 30.9203C6.2625 30.1406 6.46484 29.3875 6.7375 28.6672L4.29141 26.4508C4.63438 25.7289 5.025 25.0352 5.47578 24.3836L8.61641 25.3961C9.11172 24.7906 9.66641 24.2367 10.2719 23.7414L9.25938 20.6008C9.91094 20.15 10.6047 19.7602 11.3266 19.4164L13.543 21.8625C14.2633 21.5898 15.0156 21.3875 15.7961 21.2602L16.4937 18.0289C16.8883 17.9977 17.2844 17.9688 17.6875 17.9688C18.0906 17.9688 18.4867 17.9977 18.882 18.0289L19.5797 21.2602C20.3594 21.3875 21.1125 21.5898 21.8328 21.8625L24.0492 19.4164C24.7711 19.7594 25.4648 20.15 26.1164 20.6008L25.1039 23.7414C25.7094 24.2367 26.2633 24.7914 26.7586 25.3969L29.8992 24.3844C30.35 25.0359 30.7398 25.7297 31.0836 26.4516L28.6375 28.668C28.9102 29.3883 29.1125 30.1406 29.2398 30.9211L32.4711 31.6187C32.5023 32.0133 32.5312 32.4094 32.5312 32.8125C32.5312 33.2156 32.5023 33.6117 32.4711 34.007L29.2398 34.7047ZM17.6875 25C13.3727 25 9.875 28.4977 9.875 32.8125C9.875 37.1273 13.3727 40.625 17.6875 40.625C22.0023 40.625 25.5 37.1273 25.5 32.8125C25.5 28.4977 22.0023 25 17.6875 25Z" fill="#454A6D"/>
<path d="M40.0773 12.7383C39.9555 13.1422 39.7961 13.5297 39.6 13.8945L40.8336 16.2586C40.4172 16.7852 39.9422 17.2602 39.4156 17.6766L37.0516 16.443C36.6867 16.6398 36.2992 16.7992 35.8953 16.9203L35.0953 19.4672C34.7656 19.5063 34.4328 19.5312 34.0938 19.5312C33.7547 19.5312 33.4219 19.5063 33.093 19.468L32.293 16.9211C31.8891 16.8 31.5016 16.6398 31.1367 16.4438L28.7727 17.6773C28.2461 17.2609 27.7711 16.7859 27.3547 16.2594L28.5883 13.8953C28.3914 13.5305 28.232 13.143 28.1109 12.7391L25.5641 11.9391C25.525 11.6094 25.5 11.2766 25.5 10.9375C25.5 10.5984 25.525 10.2656 25.5633 9.93672L28.1102 9.13672C28.2312 8.73281 28.3914 8.34531 28.5875 7.98047L27.3539 5.61641C27.7703 5.08984 28.2453 4.61484 28.7719 4.19844L31.1359 5.43203C31.5008 5.23516 31.8883 5.07578 32.2922 4.95469L33.0922 2.40781C33.4219 2.36875 33.7547 2.34375 34.0938 2.34375C34.4328 2.34375 34.7656 2.36875 35.0945 2.40703L35.8945 4.95391C36.2984 5.075 36.6859 5.23516 37.0508 5.43125L39.4148 4.19766C39.9414 4.61406 40.4164 5.08906 40.8328 5.61563L39.5992 7.97969C39.7961 8.34453 39.9555 8.73203 40.0766 9.13594L42.6234 9.93594C42.6625 10.2656 42.6875 10.5984 42.6875 10.9375C42.6875 11.2766 42.6625 11.6094 42.6242 11.9383L40.0773 12.7383ZM34.0938 7.8125C32.368 7.8125 30.9688 9.21172 30.9688 10.9375C30.9688 12.6633 32.368 14.0625 34.0938 14.0625C35.8195 14.0625 37.2188 12.6633 37.2188 10.9375C37.2188 9.21172 35.8195 7.8125 34.0938 7.8125Z" fill="#E89D43"/>
<path d="M46.3898 30.368C46.2695 30.8016 46.1 31.2125 45.8828 31.5961L46.6602 33.232C46.307 33.6828 45.9016 34.0883 45.4508 34.4414L43.8148 33.6641C43.432 33.8813 43.0203 34.0508 42.5867 34.1711L41.9789 35.8805C41.6984 35.9148 41.4148 35.9375 41.125 35.9375C40.8352 35.9375 40.5516 35.9148 40.2711 35.8805L39.6633 34.1711C39.2297 34.0508 38.8187 33.8813 38.4352 33.6641L36.7992 34.4414C36.3484 34.0883 35.943 33.6828 35.5898 33.232L36.3672 31.5961C36.15 31.2133 35.9805 30.8016 35.8602 30.3688L34.1508 29.7609C34.1164 29.4797 34.0938 29.1961 34.0938 28.9062C34.0938 28.6164 34.1164 28.3328 34.1508 28.0523L35.8602 27.4445C35.9805 27.0109 36.15 26.6 36.3672 26.2172L35.5898 24.5813C35.943 24.1305 36.3484 23.725 36.7992 23.3719L38.4352 24.1492C38.818 23.932 39.2297 23.7625 39.6633 23.6422L40.2711 21.9328C40.5516 21.8977 40.8352 21.875 41.125 21.875C41.4148 21.875 41.6984 21.8977 41.9789 21.932L42.5867 23.6414C43.0203 23.7617 43.4313 23.9312 43.8148 24.1484L45.4508 23.3711C45.9016 23.7242 46.307 24.1297 46.6602 24.5805L45.8828 26.2164C46.1 26.5992 46.2695 27.0109 46.3898 27.4445L48.0992 28.0523C48.1336 28.3328 48.1562 28.6164 48.1562 28.9062C48.1562 29.1961 48.1336 29.4797 48.0992 29.7602L46.3898 30.368ZM41.125 26.5625C39.8305 26.5625 38.7812 27.6117 38.7812 28.9062C38.7812 30.2008 39.8305 31.25 41.125 31.25C42.4195 31.25 43.4688 30.2008 43.4688 28.9062C43.4688 27.6117 42.4195 26.5625 41.125 26.5625Z" fill="#4AC3ED"/>
<path d="M48.3092 3.92186L43.6365 2.98749L42.7021 7.65936L44.2342 7.96639L44.6553 5.86327C45.4123 7.43827 45.8123 9.17421 45.8123 10.9375C45.8123 13.6312 44.9232 16.1641 43.242 18.2617L44.4615 19.2391C46.3404 16.8945 47.3748 13.9469 47.3748 10.9375C47.3748 8.8914 46.9021 6.87421 46.0029 5.05389L48.0029 5.45389L48.3092 3.92186Z" fill="#454A6D"/>
<path d="M19.021 10.3852L17.9163 11.4899L18.978 12.5516C18.5483 12.5243 18.1179 12.5 17.6874 12.5C11.6437 12.5 5.95459 15.1649 2.07959 19.8117L3.27959 20.8125C6.85693 16.5227 12.1077 14.0625 17.6874 14.0625C18.0851 14.0625 18.4819 14.0852 18.8788 14.1102L17.9163 15.0727L19.021 16.1774L21.9171 13.2813L19.021 10.3852Z" fill="#454A6D"/>
</svg>
