<svg width="143" height="50" viewBox="0 0 143 50" fill="none" xmlns="http://www.w3.org/2000/svg">
<path d="M66.9088 13.7166C67.8721 14.0179 68.6279 14.5231 69.1735 15.2295C69.7203 15.936 69.9931 16.8057 69.9931 17.8384C69.9931 19.3001 69.4183 20.4236 68.27 21.2103C67.1217 21.9971 65.4465 22.3904 63.2457 22.3904H54.5223V5.71106H62.764C64.8198 5.71106 66.3992 6.10048 67.4996 6.87801C68.6 7.65686 69.1508 8.71198 69.1508 10.0473C69.1508 10.8578 68.9539 11.58 68.5601 12.2155C68.1662 12.8509 67.6153 13.3522 66.9088 13.7166ZM58.4023 8.61857V12.5496H62.2823C63.2457 12.5496 63.9775 12.3826 64.4751 12.0497C64.9728 11.7155 65.2216 11.2235 65.2216 10.5723C65.2216 9.92103 64.9728 9.43294 64.4751 9.10667C63.9775 8.78171 63.2457 8.61857 62.2823 8.61857H58.4023ZM62.9569 19.4829C63.9855 19.4829 64.7599 19.3159 65.2828 18.983C65.8044 18.6488 66.0665 18.1331 66.0665 17.4345C66.0665 16.0531 65.03 15.3611 62.9583 15.3611H58.4037V19.4829H62.9569Z" fill="#55CE63" fill-opacity="0.4"/>
<path d="M84.9343 16.0281C84.9343 16.0755 84.9103 16.4096 84.8624 17.0293H75.0547C75.2316 17.8239 75.6494 18.4515 76.3081 18.9119C76.9667 19.3724 77.7864 19.6026 78.7657 19.6026C79.4403 19.6026 80.0391 19.5026 80.5606 19.3053C81.0822 19.1066 81.5692 18.7935 82.019 18.3646L84.0189 20.5091C82.7987 21.8905 81.0144 22.5825 78.6699 22.5825C77.2076 22.5825 75.9142 22.3009 74.7899 21.7365C73.6655 21.1721 72.798 20.3907 72.1872 19.3895C71.5765 18.3883 71.2718 17.2529 71.2718 15.982C71.2718 14.7269 71.5725 13.5955 72.1753 12.5864C72.778 11.5774 73.6043 10.7919 74.6568 10.2275C75.7093 9.66313 76.8856 9.38159 78.1869 9.38159C79.4563 9.38159 80.6046 9.65129 81.6331 10.192C82.6617 10.7327 83.468 11.5063 84.0548 12.5154C84.6402 13.5218 84.9343 14.6941 84.9343 16.0281ZM78.2108 12.1918C77.3592 12.1918 76.6447 12.4299 76.0659 12.9061C75.4871 13.3824 75.1345 14.0336 75.0054 14.8598H81.3909C81.2619 14.0494 80.9093 13.4021 80.3305 12.918C79.753 12.4338 79.0464 12.1918 78.2108 12.1918Z" fill="#55CE63" fill-opacity="0.4"/>
<path d="M91.3438 22.5798C90.2673 22.5798 89.2148 22.4483 88.1876 22.1865C87.1591 21.9247 86.3394 21.5944 85.73 21.1971L86.9834 18.529C87.5622 18.8948 88.2608 19.1921 89.0804 19.4223C89.9001 19.6526 90.7038 19.7684 91.4901 19.7684C93.0802 19.7684 93.8759 19.3789 93.8759 18.6014C93.8759 18.2357 93.659 17.9739 93.2252 17.8147C92.7915 17.6555 92.1248 17.5213 91.2254 17.4095C90.1649 17.2503 89.2893 17.0674 88.5988 16.8608C87.9082 16.6543 87.3094 16.2886 86.8038 15.7649C86.2982 15.2413 86.0454 14.494 86.0454 13.5258C86.0454 12.7153 86.2822 11.997 86.7559 11.3695C87.2296 10.7419 87.9202 10.2538 88.8276 9.90386C89.7351 9.55391 90.8075 9.38025 92.045 9.38025C92.9604 9.38025 93.8719 9.48023 94.7807 9.67758C95.6882 9.87623 96.4399 10.1499 97.0334 10.4998L95.78 13.1442C94.6397 12.5088 93.3942 12.1917 92.045 12.1917C91.2413 12.1917 90.6399 12.3022 90.2381 12.5259C89.8362 12.7482 89.6353 13.0337 89.6353 13.3837C89.6353 13.781 89.8522 14.0586 90.286 14.2178C90.7197 14.377 91.4103 14.5269 92.3577 14.6703C93.4182 14.8453 94.2857 15.0321 94.9603 15.2308C95.6349 15.4295 96.2217 15.7912 96.7194 16.3149C97.217 16.8385 97.4658 17.57 97.4658 18.5067C97.4658 19.3013 97.225 20.0078 96.7433 20.6275C96.2616 21.2471 95.5591 21.7273 94.6343 22.0694C93.7096 22.4114 92.6132 22.5798 91.3438 22.5798Z" fill="#55CE63" fill-opacity="0.4"/>
<path d="M107.682 21.7709C107.312 22.0406 106.858 22.2432 106.321 22.3787C105.783 22.5142 105.217 22.5813 104.622 22.5813C103.08 22.5813 101.886 22.1919 101.044 21.4144C100.2 20.6355 99.7784 19.4922 99.7784 17.9832V12.7181H97.7785V9.85929H99.7784V6.73865H103.537V9.85929H106.767V12.7181H103.537V17.9359C103.537 18.4753 103.678 18.8923 103.959 19.187C104.24 19.4804 104.638 19.6277 105.151 19.6277C105.746 19.6277 106.252 19.4686 106.67 19.1515L107.682 21.7709Z" fill="#55CE63" fill-opacity="0.4"/>
<path d="M58.4263 30.5158V34.9231H66.2342V38.0214H58.4263V44.0969H54.5223V27.4175H67.2707V30.5158H58.4263Z" fill="#55CE63" fill-opacity="0.4"/>
<path d="M75.0294 44.2876C73.6642 44.2876 72.4387 44.006 71.3543 43.4416C70.2698 42.8772 69.4223 42.0957 68.8115 41.0946C68.2008 40.0934 67.8961 38.958 67.8961 37.6871C67.8961 36.4162 68.2008 35.2809 68.8115 34.2797C69.4223 33.2785 70.2698 32.497 71.3543 31.9326C72.4387 31.3682 73.6642 31.0867 75.0294 31.0867C76.3946 31.0867 77.616 31.3682 78.6925 31.9326C79.7689 32.497 80.6125 33.2785 81.2233 34.2797C81.834 35.2809 82.1387 36.4162 82.1387 37.6871C82.1387 38.958 81.834 40.0934 81.2233 41.0946C80.6125 42.0957 79.7689 42.8772 78.6925 43.4416C77.616 44.0047 76.3946 44.2876 75.0294 44.2876ZM75.0294 41.238C75.9927 41.238 76.7844 40.9156 77.4031 40.2723C78.0219 39.629 78.3306 38.7672 78.3306 37.6871C78.3306 36.607 78.0219 35.7453 77.4031 35.1019C76.7844 34.4586 75.994 34.1376 75.0294 34.1376C74.066 34.1376 73.2703 34.4599 72.6436 35.1019C72.0169 35.7453 71.7042 36.607 71.7042 37.6871C71.7042 38.7672 72.0182 39.629 72.6436 40.2723C73.2703 40.9156 74.066 41.238 75.0294 41.238Z" fill="#55CE63" fill-opacity="0.4"/>
<path d="M87.7778 32.9693C88.2275 32.3497 88.8343 31.8813 89.5967 31.5629C90.3591 31.2459 91.2387 31.0867 92.2353 31.0867V34.5178C91.8175 34.4862 91.5367 34.4704 91.3917 34.4704C90.3152 34.4704 89.4716 34.7678 88.8609 35.3637C88.2501 35.9597 87.9454 36.853 87.9454 38.045V44.0968H84.1865V31.2787H87.7765V32.9693H87.7778Z" fill="#55CE63" fill-opacity="0.4"/>
<path d="M102.839 43.4772C102.469 43.7469 102.015 43.9495 101.478 44.085C100.94 44.2205 100.373 44.2876 99.7784 44.2876C98.2362 44.2876 97.0427 43.8982 96.2004 43.1207C95.3568 42.3418 94.935 41.1985 94.935 39.6895V34.4244H92.9352V31.5656H94.935V28.4449H98.6939V31.5656H101.923V34.4244H98.6939V39.6422C98.6939 40.1829 98.835 40.5986 99.1157 40.8933C99.3965 41.1867 99.7943 41.334 100.308 41.334C100.903 41.334 101.408 41.1749 101.826 40.8578L102.839 43.4772Z" fill="#55CE63" fill-opacity="0.4"/>
<path d="M117.562 31.2776V44.0956H113.996V42.5708C113.498 43.1273 112.903 43.5523 112.213 43.8456C111.522 44.139 110.774 44.2864 109.972 44.2864C108.269 44.2864 106.92 43.8022 105.923 42.8326C104.928 41.8643 104.429 40.4264 104.429 38.52V31.2762H108.188V37.9714C108.188 40.0369 109.063 41.0684 110.814 41.0684C111.714 41.0684 112.436 40.7789 112.983 40.1988C113.529 39.6186 113.803 38.7568 113.803 37.6136V31.2762H117.562V31.2776Z" fill="#55CE63" fill-opacity="0.4"/>
<path d="M121.842 31.0867C123.448 31.0867 124.746 31.5629 125.734 32.5167C126.723 33.4693 127.217 34.8835 127.217 36.7583V44.0968H123.458V37.3306C123.458 36.3136 123.233 35.5558 122.783 35.0546C122.333 34.5546 121.683 34.3033 120.831 34.3033C119.884 34.3033 119.128 34.5928 118.566 35.173C118.004 35.7532 117.723 36.6149 117.723 37.7582V44.0955H113.964V31.2774H117.554V32.7786C118.051 32.2391 118.67 31.8221 119.409 31.5274C120.147 31.234 120.959 31.0867 121.842 31.0867Z" fill="#55CE63" fill-opacity="0.4"/>
<path d="M143 37.7345C143 37.7819 142.976 38.116 142.928 38.7357H133.12C133.297 39.5303 133.715 40.1579 134.374 40.6183C135.032 41.0788 135.852 41.309 136.831 41.309C137.506 41.309 138.105 41.209 138.626 41.0117C139.148 40.813 139.635 40.4999 140.085 40.071L142.085 42.2155C140.863 43.5969 139.08 44.2889 136.734 44.2889C135.272 44.2889 133.979 44.0074 132.854 43.443C131.73 42.8786 130.862 42.0971 130.252 41.0959C129.641 40.0947 129.336 38.9593 129.336 37.6885C129.336 36.4334 129.637 35.3019 130.24 34.2929C130.842 33.2838 131.669 32.4984 132.721 31.934C133.774 31.3696 134.95 31.088 136.251 31.088C137.521 31.088 138.669 31.3577 139.697 31.8984C140.726 32.4378 141.532 33.2127 142.119 34.2218C142.707 35.2296 143 36.4005 143 37.7345ZM136.277 33.8995C135.425 33.8995 134.71 34.1376 134.132 34.6139C133.553 35.0901 133.2 35.7413 133.071 36.5676H139.457C139.328 35.7571 138.975 35.1099 138.396 34.6257C137.819 34.1416 137.112 33.8995 136.277 33.8995Z" fill="#55CE63" fill-opacity="0.4"/>
<path fill-rule="evenodd" clip-rule="evenodd" d="M32.2243 0C40.6549 0 47.4995 6.76753 47.4995 15.1033C47.4995 18.8883 46.089 22.3484 43.7592 25.0007C46.089 27.6516 47.4995 31.113 47.4995 34.898C47.4995 43.2009 40.7081 49.9487 32.3241 50H32.2256C32.2256 50 18.8106 50 9.29019 50C6.82593 50 4.46281 49.0317 2.72106 47.3096C0.979317 45.5874 0 43.2509 0 40.8144C0 31.8169 0 18.1831 0 9.18563C0 6.74911 0.979317 4.41258 2.72106 2.69044C4.46281 0.968295 6.82593 0 9.29019 0H32.2243ZM32.2243 19.7934V19.7816C34.8362 19.7816 36.9572 17.6845 36.9572 15.102C36.9572 12.5194 34.8362 10.4223 32.2243 10.4223C32.1098 10.4223 31.9967 10.4263 31.885 10.4342H18.9756V10.4223H13.2527C12.5328 10.4223 11.8436 10.7052 11.3353 11.2077C10.827 11.7103 10.5409 12.3918 10.5409 13.1035C10.5409 22.0024 10.5409 49.9987 10.5409 49.9987H18.9742V39.5751H25.1974C27.8094 39.5751 29.9303 37.478 29.9303 34.8954C29.9303 32.3129 27.8094 30.2171 25.1974 30.2171H18.9742V19.7934H32.2243Z" fill="#55CE63" fill-opacity="0.4"/>
</svg>
