<svg width="120" height="39" viewBox="0 0 120 39" fill="none" xmlns="http://www.w3.org/2000/svg">
<path fill-rule="evenodd" clip-rule="evenodd" d="M30.5286 0C38.5156 0 45 5.27868 45 11.7806C45 14.7329 43.6638 17.4317 41.4565 19.5005C43.6638 21.5683 45 24.2682 45 27.2205C45 33.6967 38.566 38.96 30.6231 39H30.5299C30.5299 39 17.8207 39 8.80133 39C6.46675 39 4.22797 38.2447 2.57788 36.9015C0.927785 35.5582 0 33.7357 0 31.8352C0 24.8172 0 14.1828 0 7.16479C0 5.26431 0.927785 3.44181 2.57788 2.09854C4.22797 0.75527 6.46675 0 8.80133 0H30.5286ZM30.5286 15.4389V15.4297C33.0031 15.4297 35.0125 13.7939 35.0125 11.7795C35.0125 9.76514 33.0031 8.1294 30.5286 8.1294C30.4202 8.1294 30.313 8.13248 30.2072 8.13864H17.9771V8.1294H12.5553C11.8734 8.1294 11.2204 8.35003 10.7388 8.74203C10.2573 9.13404 9.98627 9.6656 9.98627 10.2208C9.98627 17.1618 9.98627 38.999 9.98627 38.999H17.9758V30.8685H23.8715C26.346 30.8685 28.3554 29.2328 28.3554 27.2184C28.3554 25.204 26.346 23.5693 23.8715 23.5693H17.9758V15.4389H30.5286Z" fill="#55CE63"/>
<path d="M61.5532 17.2195C62.2962 17.4159 62.8791 17.7453 63.2998 18.2059C63.7216 18.6666 63.932 19.2335 63.932 19.9069C63.932 20.8599 63.4887 21.5924 62.603 22.1053C61.7174 22.6183 60.4254 22.8748 58.728 22.8748H52V12H58.3565C59.942 12 61.1601 12.2539 62.0088 12.7608C62.8575 13.2686 63.2824 13.9566 63.2824 14.8272C63.2824 15.3556 63.1305 15.8265 62.8267 16.2408C62.523 16.6551 62.0981 16.9819 61.5532 17.2195ZM54.9925 13.8957V16.4587H57.985C58.728 16.4587 59.2924 16.3497 59.6762 16.1327C60.06 15.9148 60.2519 15.594 60.2519 15.1694C60.2519 14.7449 60.06 14.4266 59.6762 14.2139C59.2924 14.002 58.728 13.8957 57.985 13.8957H54.9925ZM58.5053 20.9791C59.2986 20.9791 59.8958 20.8702 60.2991 20.6531C60.7014 20.4353 60.9036 20.099 60.9036 19.6436C60.9036 18.7429 60.1042 18.2917 58.5063 18.2917H54.9935V20.9791H58.5053Z" fill="#55CE63"/>
<path d="M75.4555 18.7266C75.4555 18.7575 75.4371 18.9754 75.4001 19.3794H67.8358C67.9723 19.8975 68.2945 20.3066 68.8025 20.6068C69.3105 20.9071 69.9426 21.0572 70.6979 21.0572C71.2182 21.0572 71.68 20.992 72.0823 20.8633C72.4846 20.7338 72.8602 20.5296 73.2071 20.25L74.7495 21.6482C73.8084 22.5488 72.4323 23 70.6241 23C69.4962 23 68.4987 22.8164 67.6316 22.4485C66.7644 22.0805 66.0953 21.571 65.6242 20.9182C65.1532 20.2654 64.9182 19.5252 64.9182 18.6966C64.9182 17.8783 65.1501 17.1406 65.615 16.4827C66.0799 15.8248 66.7172 15.3127 67.5289 14.9447C68.3407 14.5767 69.2479 14.3932 70.2515 14.3932C71.2306 14.3932 72.1162 14.569 72.9095 14.9216C73.7027 15.2741 74.3246 15.7785 74.7772 16.4364C75.2287 17.0926 75.4555 17.8568 75.4555 18.7266ZM70.27 16.2254C69.6132 16.2254 69.0621 16.3806 68.6157 16.6911C68.1693 17.0016 67.8974 17.4262 67.7978 17.9649H72.7227C72.6231 17.4365 72.3512 17.0145 71.9048 16.6988C71.4594 16.3832 70.9145 16.2254 70.27 16.2254Z" fill="#55CE63"/>
<path d="M80.3989 22.9983C79.5687 22.9983 78.7569 22.9125 77.9647 22.7418C77.1714 22.5711 76.5393 22.3558 76.0692 22.0968L77.0359 20.3572C77.4824 20.5957 78.0211 20.7895 78.6533 20.9396C79.2854 21.0898 79.9053 21.1652 80.5118 21.1652C81.7381 21.1652 82.3518 20.9113 82.3518 20.4044C82.3518 20.1659 82.1846 19.9952 81.85 19.8915C81.5155 19.7877 81.0013 19.7002 80.3076 19.6273C79.4897 19.5235 78.8144 19.4042 78.2818 19.2696C77.7492 19.1349 77.2874 18.8964 76.8974 18.5551C76.5074 18.2137 76.3125 17.7265 76.3125 17.0951C76.3125 16.5668 76.4951 16.0984 76.8605 15.6893C77.2258 15.2801 77.7584 14.9619 78.4583 14.7337C79.1582 14.5055 79.9853 14.3923 80.9397 14.3923C81.6458 14.3923 82.3488 14.4575 83.0497 14.5862C83.7496 14.7157 84.3294 14.8941 84.7871 15.1223L83.8204 16.8464C82.9409 16.4321 81.9803 16.2254 80.9397 16.2254C80.3199 16.2254 79.856 16.2974 79.5461 16.4432C79.2362 16.5882 79.0812 16.7743 79.0812 17.0025C79.0812 17.2615 79.2485 17.4425 79.5831 17.5463C79.9176 17.6501 80.4502 17.7479 81.1809 17.8414C81.9988 17.9555 82.6679 18.0773 83.1882 18.2068C83.7085 18.3363 84.1611 18.5722 84.5449 18.9136C84.9287 19.255 85.1206 19.7319 85.1206 20.3426C85.1206 20.8607 84.9349 21.3214 84.5634 21.7254C84.1919 22.1294 83.65 22.4425 82.9368 22.6655C82.2236 22.8885 81.3779 22.9983 80.3989 22.9983Z" fill="#55CE63"/>
<path d="M93 22.4708C92.7147 22.6466 92.3648 22.7787 91.9502 22.867C91.5356 22.9554 91.0984 22.9991 90.6397 22.9991C89.4503 22.9991 88.5297 22.7452 87.8801 22.2383C87.2295 21.7305 86.9042 20.9851 86.9042 20.0012V16.5685H85.3618V14.7045H86.9042V12.6699H89.8033V14.7045H92.294V16.5685H89.8033V19.9704C89.8033 20.3221 89.9121 20.594 90.1286 20.7861C90.3451 20.9774 90.652 21.0735 91.0481 21.0735C91.5068 21.0735 91.8968 20.9697 92.219 20.7629L93 22.4708Z" fill="#55CE63"/>
<path d="M55.0004 28.02V30.8936H61.0012V32.9136H55.0004V36.8748H52V26H61.7978V28.02H55.0004Z" fill="#55CE63"/>
<path d="M67.7608 36.9991C66.7116 36.9991 65.7697 36.8156 64.9363 36.4476C64.1029 36.0796 63.4514 35.5701 62.982 34.9173C62.5127 34.2646 62.2785 33.5243 62.2785 32.6957C62.2785 31.8671 62.5127 31.1269 62.982 30.4741C63.4514 29.8214 64.1029 29.3118 64.9363 28.9439C65.7697 28.5759 66.7116 28.3923 67.7608 28.3923C68.81 28.3923 69.7488 28.5759 70.5761 28.9439C71.4034 29.3118 72.0518 29.8214 72.5212 30.4741C72.9906 31.1269 73.2247 31.8671 73.2247 32.6957C73.2247 33.5243 72.9906 34.2646 72.5212 34.9173C72.0518 35.5701 71.4034 36.0796 70.5761 36.4476C69.7488 36.8147 68.81 36.9991 67.7608 36.9991ZM67.7608 35.0108C68.5012 35.0108 69.1097 34.8007 69.5852 34.3812C70.0607 33.9618 70.298 33.4 70.298 32.6957C70.298 31.9915 70.0607 31.4297 69.5852 31.0102C69.1097 30.5908 68.5022 30.3815 67.7608 30.3815C67.0204 30.3815 66.4089 30.5916 65.9272 31.0102C65.4456 31.4297 65.2053 31.9915 65.2053 32.6957C65.2053 33.4 65.4466 33.9618 65.9272 34.3812C66.4089 34.8007 67.0204 35.0108 67.7608 35.0108Z" fill="#55CE63"/>
<path d="M77.5587 29.6198C77.9043 29.2158 78.3706 28.9104 78.9566 28.7028C79.5426 28.4961 80.2185 28.3923 80.9845 28.3923V30.6294C80.6634 30.6088 80.4476 30.5985 80.3361 30.5985C79.5088 30.5985 78.8605 30.7923 78.3911 31.1809C77.9217 31.5695 77.6875 32.1519 77.6875 32.929V36.8748H74.7986V28.5175H77.5576V29.6198H77.5587Z" fill="#55CE63"/>
<path d="M89.1339 36.4708C88.8496 36.6466 88.5009 36.7787 88.0877 36.867C87.6746 36.9554 87.2389 36.9991 86.7818 36.9991C85.5966 36.9991 84.6793 36.7452 84.0319 36.2383C83.3836 35.7305 83.0594 34.9851 83.0594 34.0012V30.5685H81.5224V28.7045H83.0594V26.6699H85.9484V28.7045H88.4303V30.5685H85.9484V33.9704C85.9484 34.3229 86.0568 34.594 86.2725 34.7861C86.4883 34.9774 86.7941 35.0735 87.1888 35.0735C87.6459 35.0735 88.0345 34.9697 88.3556 34.7629L89.1339 36.4708Z" fill="#55CE63"/>
<path d="M100.449 36.8739H97.7086V35.8798C97.3262 36.2426 96.869 36.5197 96.3383 36.7109C95.8075 36.9022 95.2328 36.9983 94.6162 36.9983C93.3072 36.9983 92.2703 36.6826 91.5043 36.0505C90.7394 35.4191 90.3559 34.4816 90.3559 33.2387V28.5158H93.2448V32.881C93.2448 34.2277 93.9177 34.9002 95.2635 34.9002C95.9548 34.9002 96.5101 34.7115 96.9304 34.3332C97.3497 33.9549 97.5603 33.3931 97.5603 32.6477V28.5158H100.449V36.8739Z" fill="#55CE63"/>
<path d="M103.739 28.3923C104.973 28.3923 105.97 28.7028 106.73 29.3247C107.49 29.9457 107.87 30.8678 107.87 32.0901V36.8748H104.981V32.4633C104.981 31.8002 104.808 31.3061 104.462 30.9793C104.116 30.6534 103.616 30.4896 102.962 30.4896C102.234 30.4896 101.653 30.6783 101.221 31.0565C100.789 31.4348 100.573 31.9967 100.573 32.742V36.8739H97.6841V28.5167H100.443V29.4954C100.826 29.1437 101.301 28.8718 101.869 28.6797C102.436 28.4884 103.06 28.3923 103.739 28.3923Z" fill="#55CE63"/>
<path d="M120 32.7266C120 32.7575 119.982 32.9754 119.945 33.3794H112.407C112.543 33.8975 112.864 34.3066 113.37 34.6068C113.876 34.907 114.506 35.0572 115.259 35.0572C115.778 35.0572 116.238 34.992 116.639 34.8633C117.039 34.7338 117.414 34.5296 117.759 34.25L119.296 35.6482C118.358 36.5488 116.987 37 115.184 37C114.061 37 113.067 36.8164 112.202 36.4485C111.338 36.0805 110.672 35.571 110.202 34.9182C109.733 34.2654 109.499 33.5252 109.499 32.6966C109.499 31.8783 109.73 31.1406 110.193 30.4827C110.656 29.8248 111.291 29.3127 112.1 28.9447C112.909 28.5767 113.813 28.3932 114.813 28.3932C115.789 28.3932 116.671 28.569 117.462 28.9216C118.252 29.2732 118.872 29.7785 119.323 30.4364C119.775 31.0934 120 31.8568 120 32.7266ZM114.833 30.2262C114.178 30.2262 113.629 30.3815 113.184 30.692C112.739 31.0025 112.468 31.4271 112.369 31.9658H117.277C117.178 31.4374 116.907 31.0154 116.462 30.6997C116.018 30.384 115.475 30.2262 114.833 30.2262Z" fill="#55CE63"/>
</svg>
