<svg width="32" height="32" viewBox="0 0 32 32" fill="none" xmlns="http://www.w3.org/2000/svg">
<path d="M10 4H22.0053C25.316 4 28 6.684 28 9.99467V22.0067C28 25.316 25.316 28 22.0053 28H9.99467C6.684 28 4 25.316 4 22.0053V10C4 6.68667 6.68667 4 10 4V4Z" stroke="#817F7F" stroke-width="1.5" stroke-linecap="round" stroke-linejoin="round"/>
<path d="M13.4578 20.6551L12.3751 17.0897C12.3738 17.0884 9.27377 16.1217 9.27377 16.1217C8.91911 16.0111 8.90177 15.5137 9.24978 15.3804L21.0511 10.8284C21.4871 10.6604 21.9364 11.0431 21.8404 11.5004L19.8578 20.8444C19.7418 21.3924 19.0978 21.6364 18.6484 21.3031L15.8324 19.2231L14.1724 20.8391C13.9391 21.0631 13.5524 20.9631 13.4578 20.6551V20.6551Z" stroke="#817F7F" stroke-width="1.5" stroke-linecap="round" stroke-linejoin="round"/>
</svg>
