<svg width="32" height="32" viewBox="0 0 32 32" fill="none" xmlns="http://www.w3.org/2000/svg">
<g clip-path="url(#clip0_341_1692)">
<path d="M24.2728 7.68241C22.0782 5.48641 19.1595 4.27575 16.0502 4.27441C9.64084 4.27441 4.42617 9.48641 4.42484 15.8931C4.42217 17.9317 4.95684 19.9357 5.97551 21.7024L4.32617 27.7237L10.4888 26.1077C12.1942 27.0357 14.1035 27.5224 16.0448 27.5224H16.0502C22.4568 27.5224 27.6715 22.3091 27.6742 15.9024C27.6755 12.7984 26.4675 9.87975 24.2728 7.68241Z" stroke="#817F7F" stroke-width="1.5" stroke-linecap="round" stroke-linejoin="round"/>
<path d="M17.4609 18.0796L18.0023 17.5423C18.4996 17.049 19.2863 16.9863 19.8596 17.389C20.4143 17.7783 20.9156 18.1276 21.3823 18.453C22.1236 18.9676 22.2129 20.0236 21.5743 20.661L21.0956 21.1396" stroke="#817F7F" stroke-width="1.5" stroke-linecap="round" stroke-linejoin="round"/>
<path d="M10.8594 10.9053L11.338 10.4266C11.9754 9.78928 13.0314 9.87861 13.546 10.6186C13.87 11.0853 14.2194 11.5866 14.61 12.1413C15.0127 12.7146 14.9514 13.5013 14.4567 13.9986L13.9194 14.5399" stroke="#817F7F" stroke-width="1.5" stroke-linecap="round" stroke-linejoin="round"/>
<path d="M21.095 21.1395C19.1203 23.1049 15.8016 21.4355 13.1816 18.8142" stroke="#817F7F" stroke-width="1.5" stroke-linecap="round" stroke-linejoin="round"/>
<path d="M13.1841 18.8185C10.5641 16.1972 8.89476 12.8798 10.8601 10.9052" stroke="#817F7F" stroke-width="1.5" stroke-linecap="round" stroke-linejoin="round"/>
<path d="M13.9199 14.5399C14.3453 15.2106 14.8906 15.8746 15.5066 16.4906L15.5093 16.4932C16.1253 17.1092 16.7893 17.6546 17.4599 18.0799" stroke="#817F7F" stroke-width="1.5" stroke-linecap="round" stroke-linejoin="round"/>
</g>
<defs>
<clipPath id="clip0_341_1692">
<rect width="32" height="32" fill="white"/>
</clipPath>
</defs>
</svg>
