<svg width="73" height="26" viewBox="0 0 73 26" fill="none" xmlns="http://www.w3.org/2000/svg">
<path d="M34.1562 7.00226C34.648 7.15606 35.0338 7.41396 35.3123 7.77461C35.5915 8.13527 35.7307 8.5792 35.7307 9.10641C35.7307 9.85257 35.4373 10.4261 34.8511 10.8277C34.2649 11.2294 33.4097 11.4302 32.2863 11.4302H27.8331V2.91553H32.0404C33.0898 2.91553 33.8961 3.11432 34.4578 3.51124C35.0196 3.90884 35.3008 4.44747 35.3008 5.12915C35.3008 5.54286 35.2002 5.91157 34.9992 6.23596C34.7981 6.56035 34.5169 6.81623 34.1562 7.00226ZM29.8138 4.39978V6.40655H31.7945C32.2863 6.40655 32.6598 6.32125 32.9139 6.15134C33.1679 5.98075 33.2949 5.72957 33.2949 5.39712C33.2949 5.06467 33.1679 4.81551 32.9139 4.64895C32.6598 4.48306 32.2863 4.39978 31.7945 4.39978H29.8138ZM32.1389 9.94592C32.6639 9.94592 33.0592 9.86063 33.3262 9.69071C33.5925 9.52012 33.7263 9.25685 33.7263 8.90023C33.7263 8.19504 33.1971 7.84177 32.1395 7.84177H29.8144V9.94592H32.1389Z" fill="white"/>
<path d="M43.3581 8.18203C43.3581 8.20621 43.3458 8.3768 43.3214 8.69312H38.3146C38.405 9.09877 38.6182 9.41913 38.9545 9.65419C39.2907 9.88926 39.7091 10.0068 40.209 10.0068C40.5534 10.0068 40.8591 9.95575 41.1254 9.855C41.3916 9.75359 41.6402 9.59375 41.8698 9.3748L42.8907 10.4695C42.2679 11.1747 41.357 11.528 40.1601 11.528C39.4136 11.528 38.7534 11.3843 38.1794 11.0961C37.6055 10.808 37.1626 10.4091 36.8508 9.89799C36.539 9.38689 36.3835 8.8073 36.3835 8.15852C36.3835 7.51781 36.537 6.94023 36.8447 6.4251C37.1524 5.90998 37.5742 5.50903 38.1115 5.22091C38.6488 4.93279 39.2493 4.78906 39.9136 4.78906C40.5616 4.78906 41.1478 4.92674 41.6728 5.20277C42.1979 5.4788 42.6095 5.87371 42.9091 6.38883C43.208 6.90261 43.3581 7.50102 43.3581 8.18203ZM39.9258 6.22362C39.4911 6.22362 39.1263 6.34518 38.8308 6.5883C38.5354 6.83142 38.3554 7.16387 38.2895 7.58564H41.5492C41.4833 7.17193 41.3033 6.8415 41.0079 6.59435C40.7131 6.34719 40.3524 6.22362 39.9258 6.22362Z" fill="white"/>
<path d="M46.63 11.5268C46.0805 11.5268 45.5432 11.4597 45.0188 11.326C44.4938 11.1924 44.0754 11.0238 43.7643 10.821L44.4041 9.45894C44.6996 9.64564 45.0562 9.79743 45.4746 9.91496C45.893 10.0325 46.3033 10.0916 46.7048 10.0916C47.5165 10.0916 47.9227 9.8928 47.9227 9.49588C47.9227 9.30917 47.8119 9.17552 47.5905 9.09425C47.3691 9.01299 47.0288 8.94449 46.5696 8.8874C46.0282 8.80614 45.5813 8.71278 45.2287 8.60734C44.8762 8.5019 44.5705 8.31519 44.3124 8.04789C44.0543 7.78059 43.9252 7.39911 43.9252 6.90481C43.9252 6.4911 44.0462 6.1244 44.288 5.80405C44.5298 5.48369 44.8823 5.23452 45.3456 5.05587C45.8088 4.87723 46.3563 4.78857 46.988 4.78857C47.4553 4.78857 47.9206 4.83962 48.3845 4.94036C48.8478 5.04177 49.2316 5.18146 49.5345 5.36011L48.8947 6.71004C48.3125 6.38566 47.6768 6.2238 46.988 6.2238C46.5777 6.2238 46.2707 6.28021 46.0656 6.39439C45.8604 6.50789 45.7579 6.65363 45.7579 6.83228C45.7579 7.0351 45.8686 7.17681 46.09 7.25808C46.3115 7.33934 46.664 7.41591 47.1476 7.48911C47.689 7.57843 48.1319 7.6738 48.4762 7.77522C48.8206 7.87663 49.1202 8.06132 49.3742 8.32862C49.6283 8.59592 49.7553 8.96934 49.7553 9.44752C49.7553 9.85317 49.6323 10.2138 49.3864 10.5302C49.1406 10.8465 48.7819 11.0916 48.3098 11.2662C47.8377 11.4409 47.278 11.5268 46.63 11.5268Z" fill="white"/>
<path d="M54.9706 11.1137C54.7817 11.2514 54.5501 11.3548 54.2757 11.424C54.0013 11.4932 53.7119 11.5275 53.4083 11.5275C52.621 11.5275 52.0117 11.3287 51.5818 10.9317C51.1511 10.5341 50.9358 9.95051 50.9358 9.18018V6.4924H49.9149V5.033H50.9358V3.43994H52.8547V5.033H54.5032V6.4924H52.8547V9.156C52.8547 9.43136 52.9267 9.64426 53.07 9.7947C53.2133 9.94447 53.4164 10.0197 53.6786 10.0197C53.9823 10.0197 54.2404 9.93842 54.4537 9.77657L54.9706 11.1137Z" fill="white"/>
<path d="M29.826 15.5777V17.8276H33.8119V19.4093H29.826V22.5107H27.8331V13.9961H34.341V15.5777H29.826Z" fill="white"/>
<path d="M38.3017 22.6085C37.6048 22.6085 36.9792 22.4648 36.4256 22.1767C35.872 21.8886 35.4393 21.4896 35.1276 20.9786C34.8158 20.4675 34.6602 19.8879 34.6602 19.2391C34.6602 18.5903 34.8158 18.0107 35.1276 17.4996C35.4393 16.9885 35.872 16.5896 36.4256 16.3015C36.9792 16.0134 37.6048 15.8696 38.3017 15.8696C38.9986 15.8696 39.6222 16.0134 40.1717 16.3015C40.7212 16.5896 41.1518 16.9885 41.4636 17.4996C41.7754 18.0107 41.931 18.5903 41.931 19.2391C41.931 19.8879 41.7754 20.4675 41.4636 20.9786C41.1518 21.4896 40.7212 21.8886 40.1717 22.1767C39.6222 22.4642 38.9986 22.6085 38.3017 22.6085ZM38.3017 21.0518C38.7935 21.0518 39.1976 20.8872 39.5135 20.5588C39.8293 20.2304 39.9869 19.7905 39.9869 19.2391C39.9869 18.6877 39.8293 18.2478 39.5135 17.9194C39.1976 17.591 38.7942 17.4271 38.3017 17.4271C37.8099 17.4271 37.4037 17.5916 37.0838 17.9194C36.7639 18.2478 36.6043 18.6877 36.6043 19.2391C36.6043 19.7905 36.7646 20.2304 37.0838 20.5588C37.4037 20.8872 37.8099 21.0518 38.3017 21.0518Z" fill="white"/>
<path d="M44.8096 16.8307C45.0392 16.5144 45.349 16.2753 45.7382 16.1128C46.1274 15.9509 46.5764 15.8696 47.0851 15.8696V17.6212C46.8718 17.6051 46.7285 17.597 46.6545 17.597C46.105 17.597 45.6743 17.7488 45.3625 18.053C45.0508 18.3573 44.8952 18.8133 44.8952 19.4218V22.5112H42.9763V15.9677H44.809V16.8307H44.8096Z" fill="white"/>
<path d="M52.4981 22.1948C52.3093 22.3325 52.0776 22.4359 51.8032 22.5051C51.5288 22.5743 51.2394 22.6085 50.9358 22.6085C50.1486 22.6085 49.5393 22.4097 49.1093 22.0128C48.6787 21.6152 48.4633 21.0316 48.4633 20.2612V17.5735H47.4424V16.1141H48.4633V14.521H50.3822V16.1141H52.0308V17.5735H50.3822V20.2371C50.3822 20.5131 50.4542 20.7253 50.5975 20.8758C50.7409 21.0255 50.944 21.1007 51.2062 21.1007C51.5098 21.1007 51.7679 21.0195 51.9812 20.8576L52.4981 22.1948Z" fill="white"/>
<path d="M60.014 15.967V22.5105H58.1936V21.7321C57.9396 22.0162 57.636 22.2331 57.2834 22.3829C56.9309 22.5326 56.5492 22.6078 56.1396 22.6078C55.2701 22.6078 54.5814 22.3607 54.0726 21.8657C53.5645 21.3714 53.3098 20.6373 53.3098 19.6642V15.9663H55.2287V19.3841C55.2287 20.4385 55.6756 20.9651 56.5695 20.9651C57.0287 20.9651 57.3975 20.8173 57.6767 20.5212C57.9552 20.225 58.0951 19.7851 58.0951 19.2014V15.9663H60.014V15.967Z" fill="white"/>
<path d="M62.1992 15.8696C63.019 15.8696 63.6813 16.1128 64.186 16.5997C64.6907 17.0859 64.9427 17.8079 64.9427 18.7649V22.5112H63.0238V19.0571C63.0238 18.5379 62.909 18.1511 62.6794 17.8952C62.4498 17.64 62.1177 17.5117 61.683 17.5117C61.1993 17.5117 60.8135 17.6595 60.5269 17.9556C60.2395 18.2518 60.0962 18.6917 60.0962 19.2754V22.5105H58.1773V15.967H60.01V16.7333C60.264 16.458 60.5799 16.2451 60.9568 16.0946C61.3338 15.9448 61.7482 15.8696 62.1992 15.8696Z" fill="white"/>
<path d="M73 19.2631C73 19.2873 72.9878 19.4578 72.9633 19.7742H67.9565C68.0469 20.1798 68.2602 20.5002 68.5964 20.7352C68.9326 20.9703 69.3511 21.0878 69.851 21.0878C70.1954 21.0878 70.501 21.0368 70.7673 20.9361C71.0336 20.8346 71.2822 20.6748 71.5118 20.4559L72.5327 21.5506C71.9091 22.2558 70.9989 22.609 69.8014 22.609C69.0549 22.609 68.3947 22.4653 67.8207 22.1772C67.2467 21.8891 66.8039 21.4901 66.4921 20.979C66.1803 20.4679 66.0247 19.8884 66.0247 19.2396C66.0247 18.5989 66.1783 18.0213 66.486 17.5062C66.7937 16.991 67.2155 16.5901 67.7528 16.302C68.2901 16.0138 68.8905 15.8701 69.5548 15.8701C70.2028 15.8701 70.789 16.0078 71.3141 16.2838C71.8392 16.5592 72.2508 16.9548 72.5503 17.4699C72.8506 17.9843 73 18.5821 73 19.2631ZM69.5677 17.3053C69.133 17.3053 68.7683 17.4269 68.4728 17.67C68.1773 17.9131 67.9973 18.2456 67.9314 18.6674H71.1911C71.1253 18.2537 70.9453 17.9232 70.6498 17.6761C70.355 17.4289 69.9943 17.3053 69.5677 17.3053Z" fill="white"/>
<path fill-rule="evenodd" clip-rule="evenodd" d="M16.4501 0C20.7539 0 24.248 3.45475 24.248 7.71006C24.248 9.64228 23.528 11.4086 22.3386 12.7626C23.528 14.1159 24.248 15.8829 24.248 17.8151C24.248 22.0536 20.7811 25.4983 16.5011 25.5245H16.4508C16.4508 25.5245 9.6026 25.5245 4.74254 25.5245C3.48457 25.5245 2.27821 25.0302 1.38907 24.151C0.499931 23.2719 0 22.0791 0 20.8353C0 16.2422 0 9.2823 0 4.68917C0 3.44535 0.499931 2.25258 1.38907 1.37344C2.27821 0.494305 3.48457 0 4.74254 0H16.4501ZM16.4501 10.1043V10.0983C17.7835 10.0983 18.8662 9.02776 18.8662 7.70939C18.8662 6.39103 17.7835 5.32048 16.4501 5.32048C16.3917 5.32048 16.334 5.3225 16.2769 5.32653H9.68683V5.32048H6.76536C6.39788 5.32048 6.04603 5.46488 5.78656 5.72143C5.52708 5.97799 5.38104 6.32588 5.38104 6.68922C5.38104 11.232 5.38104 25.5238 5.38104 25.5238H9.68615V20.2026H12.863C14.1964 20.2026 15.2791 19.1321 15.2791 17.8137C15.2791 16.4954 14.1964 15.4255 12.863 15.4255H9.68615V10.1043H16.4501Z" fill="white"/>
</svg>
