<svg width="1070" height="250" viewBox="0 0 1070 250" fill="none" xmlns="http://www.w3.org/2000/svg">
<path d="M358.83 122.962C363.95 124.466 367.967 126.988 370.866 130.514C373.773 134.041 375.222 138.382 375.222 143.537C375.222 150.834 372.167 156.442 366.065 160.369C359.962 164.297 351.058 166.26 339.362 166.26H293V83H336.802C347.728 83 356.122 84.9439 361.97 88.8252C367.818 92.713 370.746 97.98 370.746 104.646C370.746 108.691 369.699 112.297 367.606 115.469C365.513 118.641 362.585 121.143 358.83 122.962ZM313.621 97.5137V117.137H334.242C339.362 117.137 343.251 116.303 345.896 114.641C348.541 112.973 349.863 110.517 349.863 107.266C349.863 104.015 348.541 101.579 345.896 99.9502C343.251 98.3281 339.362 97.5137 334.242 97.5137H313.621ZM337.827 151.747C343.294 151.747 347.409 150.912 350.189 149.251C352.961 147.583 354.354 145.008 354.354 141.521C354.354 134.626 348.845 131.171 337.834 131.171H313.628V151.747H337.827Z" fill="#55CE63"/>
<path d="M454.63 134.501C454.63 134.738 454.503 136.406 454.248 139.499H402.123C403.063 143.466 405.284 146.598 408.784 148.897C412.285 151.195 416.641 152.345 421.846 152.345C425.431 152.345 428.613 151.845 431.386 150.86C434.158 149.869 436.746 148.306 439.136 146.165L449.765 156.869C443.28 163.765 433.797 167.22 421.337 167.22C413.565 167.22 406.691 165.814 400.716 162.997C394.74 160.179 390.129 156.278 386.884 151.281C383.638 146.283 382.018 140.615 382.018 134.271C382.018 128.006 383.616 122.358 386.82 117.321C390.023 112.284 394.415 108.363 400.009 105.546C405.602 102.729 411.854 101.323 418.77 101.323C425.516 101.323 431.619 102.67 437.085 105.369C442.552 108.068 446.837 111.929 449.956 116.967C453.067 121.991 454.63 127.842 454.63 134.501ZM418.897 115.351C414.371 115.351 410.574 116.54 407.497 118.917C404.421 121.294 402.547 124.545 401.861 128.67H435.798C435.112 124.624 433.238 121.393 430.162 118.976C427.093 116.559 423.338 115.351 418.897 115.351Z" fill="#55CE63"/>
<path d="M488.694 167.207C482.973 167.207 477.38 166.55 471.92 165.243C466.454 163.936 462.098 162.288 458.859 160.304L465.521 146.986C468.597 148.812 472.309 150.296 476.666 151.445C481.022 152.594 485.293 153.172 489.472 153.172C497.923 153.172 502.152 151.228 502.152 147.347C502.152 145.521 500.999 144.215 498.694 143.42C496.388 142.625 492.846 141.955 488.065 141.397C482.429 140.603 477.776 139.69 474.106 138.659C470.435 137.628 467.253 135.802 464.566 133.188C461.879 130.574 460.535 126.844 460.535 122.01C460.535 117.965 461.794 114.379 464.311 111.247C466.829 108.114 470.499 105.678 475.322 103.931C480.145 102.184 485.845 101.317 492.421 101.317C497.287 101.317 502.131 101.816 506.961 102.801C511.783 103.793 515.779 105.159 518.933 106.906L512.271 120.106C506.211 116.934 499.592 115.351 492.421 115.351C488.15 115.351 484.954 115.903 482.818 117.019C480.682 118.129 479.614 119.554 479.614 121.301C479.614 123.285 480.767 124.67 483.072 125.465C485.378 126.26 489.048 127.008 494.083 127.724C499.719 128.597 504.33 129.53 507.915 130.522C511.501 131.513 514.619 133.319 517.264 135.933C519.909 138.547 521.231 142.198 521.231 146.874C521.231 150.841 519.951 154.368 517.391 157.461C514.831 160.554 511.098 162.951 506.183 164.659C501.268 166.366 495.441 167.207 488.694 167.207Z" fill="#55CE63"/>
<path d="M575.528 163.167C573.562 164.514 571.15 165.525 568.293 166.201C565.436 166.878 562.424 167.213 559.263 167.213C551.067 167.213 544.723 165.269 540.247 161.388C535.764 157.5 533.522 151.793 533.522 144.26V117.978H522.893V103.707H533.522V88.1294H553.499V103.707H570.662V117.978H553.499V144.024C553.499 146.716 554.249 148.798 555.741 150.269C557.233 151.734 559.348 152.469 562.077 152.469C565.238 152.469 567.925 151.675 570.146 150.092L575.528 163.167Z" fill="#55CE63"/>
<path d="M620.276 98.466V120.466H661.772V135.932H620.276V166.26H599.528V83H667.281V98.466H620.276Z" fill="#55CE63"/>
<path d="M708.516 167.213C701.261 167.213 694.748 165.807 688.984 162.99C683.221 160.173 678.716 156.272 675.47 151.274C672.224 146.276 670.605 140.609 670.605 134.265C670.605 127.921 672.224 122.253 675.47 117.255C678.716 112.258 683.221 108.357 688.984 105.539C694.748 102.722 701.261 101.316 708.516 101.316C715.772 101.316 722.263 102.722 727.984 105.539C733.705 108.357 738.189 112.258 741.435 117.255C744.681 122.253 746.3 127.921 746.3 134.265C746.3 140.609 744.681 146.276 741.435 151.274C738.189 156.272 733.705 160.173 727.984 162.99C722.263 165.801 715.772 167.213 708.516 167.213ZM708.516 151.99C713.636 151.99 717.844 150.381 721.132 147.169C724.42 143.958 726.061 139.656 726.061 134.265C726.061 128.873 724.42 124.571 721.132 121.36C717.844 118.148 713.643 116.546 708.516 116.546C703.396 116.546 699.167 118.155 695.837 121.36C692.506 124.571 690.844 128.873 690.844 134.265C690.844 139.656 692.513 143.958 695.837 147.169C699.167 150.381 703.396 151.99 708.516 151.99Z" fill="#55CE63"/>
<path d="M776.27 110.714C778.66 107.621 781.885 105.283 785.937 103.694C789.989 102.111 794.663 101.316 799.96 101.316V118.444C797.74 118.286 796.247 118.208 795.477 118.208C789.756 118.208 785.272 119.692 782.026 122.667C778.78 125.642 777.161 130.101 777.161 136.051V166.26H757.183V102.275H776.263V110.714H776.27Z" fill="#55CE63"/>
<path d="M856.314 163.167C854.348 164.514 851.937 165.525 849.08 166.201C846.223 166.878 843.21 167.213 840.049 167.213C831.853 167.213 825.51 165.269 821.034 161.387C816.55 157.5 814.308 151.793 814.308 144.26V117.978H803.68V103.707H814.308V88.1292H834.286V103.707H851.449V117.978H834.286V144.024C834.286 146.723 835.036 148.798 836.528 150.269C838.02 151.734 840.134 152.469 842.864 152.469C846.025 152.469 848.712 151.674 850.933 150.092L856.314 163.167Z" fill="#55CE63"/>
<path d="M934.562 166.254H915.61V158.643C912.965 161.421 909.804 163.542 906.134 165.006C902.464 166.471 898.49 167.206 894.225 167.206C885.174 167.206 878.003 164.79 872.706 159.95C867.417 155.116 864.765 147.938 864.765 138.422V102.262H884.742V135.683C884.742 145.994 889.395 151.143 898.702 151.143C903.482 151.143 907.322 149.698 910.229 146.802C913.128 143.906 914.585 139.604 914.585 133.897V102.262H934.562V166.254Z" fill="#55CE63"/>
<path d="M957.312 101.316C965.847 101.316 972.742 103.694 977.996 108.455C983.251 113.21 985.874 120.27 985.874 129.628V166.26H965.897V132.485C965.897 127.408 964.702 123.626 962.311 121.123C959.921 118.628 956.463 117.373 951.937 117.373C946.902 117.373 942.886 118.818 939.901 121.714C936.91 124.611 935.418 128.912 935.418 134.619V166.254H915.44V102.269H934.52V109.762C937.165 107.069 940.453 104.988 944.378 103.516C948.302 102.052 952.616 101.316 957.312 101.316Z" fill="#55CE63"/>
<path d="M1069.76 134.501C1069.76 134.737 1069.63 136.405 1069.38 139.499H1017.25C1018.19 143.465 1020.41 146.598 1023.91 148.896C1027.41 151.195 1031.77 152.344 1036.97 152.344C1040.56 152.344 1043.74 151.845 1046.51 150.86C1049.29 149.868 1051.87 148.305 1054.26 146.165L1064.89 156.869C1058.4 163.765 1048.93 167.219 1036.46 167.219C1028.69 167.219 1021.81 165.814 1015.84 162.997C1009.86 160.179 1005.25 156.278 1002 151.28C998.759 146.283 997.14 140.615 997.14 134.271C997.14 128.006 998.738 122.358 1001.94 117.321C1005.14 112.284 1009.54 108.363 1015.13 105.546C1020.72 102.728 1026.97 101.323 1033.89 101.323C1040.64 101.323 1046.74 102.669 1052.21 105.368C1057.67 108.061 1061.96 111.929 1065.08 116.966C1068.2 121.997 1069.76 127.842 1069.76 134.501ZM1034.03 115.357C1029.5 115.357 1025.7 116.546 1022.63 118.923C1019.55 121.301 1017.68 124.552 1016.99 128.676H1050.93C1050.24 124.63 1048.37 121.399 1045.29 118.982C1042.22 116.566 1038.47 115.357 1034.03 115.357Z" fill="#55CE63"/>
<path fill-rule="evenodd" clip-rule="evenodd" d="M171.262 0C216.068 0 252.445 33.7822 252.445 75.3926C252.445 94.2868 244.949 111.559 232.566 124.798C244.949 138.032 252.445 155.31 252.445 174.204C252.445 215.651 216.351 249.334 171.792 249.59H171.269C171.269 249.59 99.9723 249.59 49.3744 249.59C36.2777 249.59 23.7184 244.757 14.4616 236.16C5.20476 227.564 0 215.9 0 203.737C0 158.824 0 90.7667 0 45.8529C0 33.6903 5.20476 22.0267 14.4616 13.4301C23.7184 4.83354 36.2777 0 49.3744 0H171.262ZM171.262 98.8051V98.746C185.144 98.746 196.416 88.2777 196.416 75.3861C196.416 62.4945 185.144 52.0262 171.262 52.0262C170.654 52.0262 170.053 52.0459 169.459 52.0853H100.849V52.0262H70.4339C66.6081 52.0262 62.945 53.4381 60.2436 55.9469C57.5422 58.4556 56.0218 61.8574 56.0218 65.4103C56.0218 109.832 56.0218 249.584 56.0218 249.584H100.842V197.551H133.916C147.798 197.551 159.07 187.083 159.07 174.191C159.07 161.3 147.798 150.838 133.916 150.838H100.842V98.8051H171.262Z" fill="#55CE63"/>
</svg>
