<svg width="1293" height="457" viewBox="0 0 1293 457" fill="none" xmlns="http://www.w3.org/2000/svg">
<path d="M604.664 125.37C613.37 128.124 620.2 132.741 625.13 139.198C630.072 145.656 632.537 153.604 632.537 163.043C632.537 176.403 627.342 186.672 616.965 193.863C606.588 201.054 591.449 204.649 571.56 204.649H492.726V52.1993H567.207C585.785 52.1993 600.058 55.7587 610.003 62.8653C619.947 69.9839 624.926 79.6278 624.926 91.8329C624.926 99.2401 623.146 105.842 619.587 111.65C616.027 117.458 611.049 122.039 604.664 125.37ZM527.79 78.774V114.704H562.854C571.56 114.704 578.173 113.177 582.671 110.135C587.168 107.08 589.416 102.583 589.416 96.6308C589.416 90.6785 587.168 86.2173 582.671 83.2352C578.173 80.2651 571.56 78.774 562.854 78.774H527.79ZM568.95 178.074C578.245 178.074 585.244 176.547 589.97 173.505C594.683 170.451 597.052 165.737 597.052 159.352C597.052 146.726 587.685 140.401 568.962 140.401H527.802V178.074H568.95Z" fill="#55CE63"/>
<path d="M767.563 146.497C767.563 146.93 767.346 149.985 766.914 155.648H678.279C679.878 162.911 683.654 168.647 689.607 172.856C695.559 177.064 702.966 179.169 711.816 179.169C717.913 179.169 723.324 178.255 728.038 176.451C732.751 174.635 737.152 171.773 741.217 167.853L759.29 187.454C748.263 200.08 732.138 206.405 710.95 206.405C697.735 206.405 686.047 203.831 675.886 198.673C665.725 193.514 657.885 186.371 652.366 177.221C646.847 168.07 644.093 157.692 644.093 146.077C644.093 134.605 646.81 124.264 652.258 115.041C657.705 105.818 665.172 98.6389 674.684 93.4803C684.195 88.3217 694.825 85.7484 706.585 85.7484C718.057 85.7484 728.434 88.2135 737.729 93.1557C747.025 98.0978 754.312 105.168 759.614 114.391C764.905 123.59 767.563 134.304 767.563 146.497ZM706.802 111.433C699.106 111.433 692.649 113.61 687.418 117.963C682.187 122.316 679.001 128.268 677.834 135.819H735.541C734.375 128.412 731.188 122.496 725.957 118.071C720.739 113.646 714.353 111.433 706.802 111.433Z" fill="#55CE63"/>
<path d="M825.486 206.381C815.758 206.381 806.246 205.178 796.963 202.785C787.668 200.392 780.261 197.374 774.754 193.743L786.081 169.356C791.312 172.699 797.625 175.417 805.032 177.521C812.439 179.625 819.702 180.684 826.809 180.684C841.178 180.684 848.369 177.124 848.369 170.018C848.369 166.675 846.409 164.282 842.489 162.827C838.569 161.372 832.545 160.145 824.416 159.123C814.832 157.668 806.92 155.997 800.679 154.109C794.438 152.221 789.027 148.878 784.458 144.092C779.888 139.307 777.604 132.477 777.604 123.626C777.604 116.219 779.744 109.654 784.025 103.918C788.306 98.182 794.546 93.7208 802.747 90.5222C810.948 87.3236 820.64 85.7364 831.823 85.7364C840.096 85.7364 848.333 86.6502 856.546 88.454C864.747 90.2697 871.541 92.7708 876.904 95.9694L865.576 120.139C855.271 114.331 844.016 111.433 831.823 111.433C824.56 111.433 819.125 112.443 815.493 114.487C811.862 116.52 810.046 119.129 810.046 122.328C810.046 125.959 812.006 128.496 815.926 129.951C819.846 131.406 826.087 132.777 834.649 134.088C844.233 135.687 852.073 137.395 858.169 139.21C864.266 141.026 869.569 144.333 874.066 149.119C878.563 153.905 880.812 160.59 880.812 169.152C880.812 176.415 878.635 182.872 874.282 188.536C869.929 194.199 863.58 198.588 855.223 201.715C846.866 204.841 836.958 206.381 825.486 206.381Z" fill="#55CE63"/>
<path d="M973.138 198.985C969.795 201.45 965.694 203.302 960.836 204.541C955.978 205.779 950.856 206.393 945.481 206.393C931.544 206.393 920.758 202.833 913.146 195.727C905.523 188.608 901.711 178.158 901.711 164.366V116.243H883.638V90.1134H901.711V61.5907H935.681V90.1134H964.865V116.243H935.681V163.933C935.681 168.863 936.955 172.675 939.492 175.369C942.03 178.05 945.625 179.397 950.267 179.397C955.642 179.397 960.211 177.942 963.987 175.044L973.138 198.985Z" fill="#55CE63"/>
<path d="M528.006 278.914V319.197H598.567V347.515H528.006V403.045H492.726V250.595H607.935V278.914H528.006Z" fill="#55CE63"/>
<path d="M678.051 404.789C665.713 404.789 654.639 402.215 644.838 397.057C635.038 391.898 627.379 384.755 621.859 375.605C616.34 366.454 613.586 356.076 613.586 344.461C613.586 332.845 616.34 322.467 621.859 313.316C627.379 304.166 635.038 297.023 644.838 291.864C654.639 286.706 665.713 284.132 678.051 284.132C690.388 284.132 701.427 286.706 711.155 291.864C720.883 297.023 728.507 304.166 734.026 313.316C739.545 322.467 742.299 332.845 742.299 344.461C742.299 356.076 739.545 366.454 734.026 375.605C728.507 384.755 720.883 391.898 711.155 397.057C701.427 402.203 690.388 404.789 678.051 404.789ZM678.051 376.915C686.757 376.915 693.911 373.969 699.503 368.089C705.094 362.209 707.884 354.333 707.884 344.461C707.884 334.588 705.094 326.712 699.503 320.832C693.911 314.952 686.769 312.018 678.051 312.018C669.345 312.018 662.154 314.964 656.49 320.832C650.827 326.712 648.001 334.588 648.001 344.461C648.001 354.333 650.839 362.209 656.49 368.089C662.154 373.969 669.345 376.915 678.051 376.915Z" fill="#55CE63"/>
<path d="M793.26 301.34C797.324 295.676 802.807 291.395 809.698 288.485C816.588 285.587 824.536 284.132 833.543 284.132V315.493C829.767 315.204 827.23 315.06 825.919 315.06C816.191 315.06 808.567 317.778 803.048 323.225C797.529 328.672 794.775 336.837 794.775 347.731V403.045H760.805V285.888H793.248V301.34H793.26Z" fill="#55CE63"/>
<path d="M929.368 397.381C926.025 399.846 921.924 401.698 917.066 402.937C912.208 404.175 907.086 404.789 901.711 404.789C887.774 404.789 876.988 401.229 869.376 394.123C861.753 387.004 857.941 376.554 857.941 362.762V314.639H839.868V288.509H857.941V259.987H891.911V288.509H921.095V314.639H891.911V362.329C891.911 367.271 893.185 371.071 895.723 373.765C898.26 376.446 901.855 377.793 906.497 377.793C911.872 377.793 916.441 376.338 920.217 373.44L929.368 397.381Z" fill="#55CE63"/>
<path d="M1062.42 285.876V403.033H1030.2V389.096C1025.7 394.183 1020.32 398.067 1014.08 400.748C1007.84 403.43 1001.08 404.777 993.832 404.777C978.441 404.777 966.248 400.352 957.241 391.489C948.247 382.639 943.737 369.496 943.737 352.072V285.864H977.707V347.058C977.707 365.937 985.619 375.364 1001.44 375.364C1009.57 375.364 1016.1 372.719 1021.04 367.416C1025.97 362.113 1028.45 354.237 1028.45 343.787V285.864H1062.42V285.876Z" fill="#55CE63"/>
<path d="M1101.1 284.132C1115.62 284.132 1127.34 288.485 1136.28 297.203C1145.21 305.909 1149.67 318.836 1149.67 335.971V403.045H1115.7V341.202C1115.7 331.907 1113.67 324.98 1109.61 320.399C1105.54 315.83 1099.66 313.533 1091.97 313.533C1083.4 313.533 1076.57 316.178 1071.5 321.481C1066.41 326.784 1063.88 334.66 1063.88 345.11V403.033H1029.91V285.876H1062.35V299.596C1066.85 294.666 1072.44 290.854 1079.11 288.161C1085.79 285.479 1093.12 284.132 1101.1 284.132Z" fill="#55CE63"/>
<path d="M1292.31 344.893C1292.31 345.326 1292.09 348.381 1291.66 354.044H1203.03C1204.63 361.307 1208.4 367.043 1214.35 371.252C1220.31 375.46 1227.71 377.565 1236.56 377.565C1242.66 377.565 1248.07 376.651 1252.79 374.847C1257.5 373.031 1261.9 370.169 1265.96 366.249L1284.04 385.85C1273 398.476 1256.89 404.801 1235.69 404.801C1222.47 404.801 1210.78 402.227 1200.62 397.069C1190.46 391.91 1182.62 384.767 1177.1 375.617C1171.58 366.466 1168.83 356.088 1168.83 344.473C1168.83 333.001 1171.55 322.66 1176.99 313.437C1182.44 304.214 1189.91 297.035 1199.42 291.876C1208.93 286.718 1219.56 284.144 1231.32 284.144C1242.79 284.144 1253.17 286.61 1262.46 291.552C1271.76 296.482 1279.05 303.564 1284.35 312.787C1289.66 321.998 1292.31 332.7 1292.31 344.893ZM1231.55 309.841C1223.85 309.841 1217.4 312.018 1212.17 316.371C1206.93 320.724 1203.75 326.676 1202.58 334.227H1260.29C1259.12 326.82 1255.94 320.904 1250.7 316.479C1245.49 312.054 1239.1 309.841 1231.55 309.841Z" fill="#55CE63"/>
<path fill-rule="evenodd" clip-rule="evenodd" d="M291.215 0C367.404 0 429.259 61.8553 429.259 138.044C429.259 172.639 416.513 204.264 395.457 228.506C416.513 252.736 429.259 284.373 429.259 318.968C429.259 394.856 367.885 456.531 292.117 457H291.227C291.227 457 169.994 457 83.9567 457C61.6869 457 40.331 448.15 24.5906 432.409C8.85022 416.669 0 395.313 0 373.043C0 290.806 0 166.194 0 83.9567C0 61.6869 8.85022 40.331 24.5906 24.5906C40.331 8.85022 61.6869 0 83.9567 0H291.215ZM291.215 180.912V180.804C314.82 180.804 333.987 161.636 333.987 138.032C333.987 114.427 314.82 95.2599 291.215 95.2599C290.181 95.2599 289.159 95.296 288.149 95.3682H171.485V95.2599H119.766C113.261 95.2599 107.032 97.8453 102.439 102.439C97.8453 107.032 95.26 113.261 95.26 119.766C95.26 201.102 95.26 456.988 95.26 456.988H171.473V361.716H227.712C251.317 361.716 270.484 342.549 270.484 318.944C270.484 295.339 251.317 276.184 227.712 276.184H171.473V180.912H291.215Z" fill="#55CE63"/>
</svg>
